  0
SECTION
  2
HEADER
  9
$ACADVER
  1
AC1009
  9
$INSBASE
 10
0.0
 20
0.0
 30
0.0
  9
$EXTMIN
 10
0.0
 20
0.0
 30
0.0
  9
$EXTMAX
 10
0.0
 20
0.0
 30
0.0
  0
ENDSEC
  0
SECTION
  2
TABLES
  0
TABLE
  2
VPORT
 70
0
  0
ENDTAB
  0
TABLE
  2
LTYPE
 70
1
  0
LTYPE
  2
CONTINUOUS
 70
0
  3
Solid line
 72
65
 73
0
 40
0.0
  0
ENDTAB
  0
TABLE
  2
LAYER
 70
1
  0
LAYER
  2
0
 70
64
 62
7
  6
continuous
  0
ENDTAB
  0
TABLE
  2
STYLE
 70
1
  0
STYLE
  2
STANDARD
 70
0
 40
0
 41
1.0
 50
0.0
 71
0
 42
1
 3
ARIAL.TTF
 4

  0
ENDTAB
  0
TABLE
  2
VIEW
 70
0
  0
ENDTAB
  0
ENDSEC
  0
SECTION
  2
BLOCKS
  0
BLOCK
  8
0
  2
SKETCH001
 70
0
 10
0.0
 20
0.0
 30
0.0
  3
SKETCH001
  0
POLYLINE
  8
0
 62
7
 70
1
 66
1
 10
0.0
 20
0.0
 30
0.0
  0
VERTEX
  8
0
 10
-28.3561687913
 20
-58.1138710493
 30
30.6222661426
  0
VERTEX
  8
0
 10
-28.3561687913
 20
2.20314148527
 30
30.6222934956
  0
VERTEX
  8
0
 10
-132.435420307
 20
2.20314148526
 30
30.6223061424
  0
VERTEX
  8
0
 10
-132.435420307
 20
-66.3296996088
 30
30.6222750636
  0
VERTEX
  8
0
 10
-135.435420307
 20
-66.3296996088
 30
30.6222754282
  0
VERTEX
  8
0
 10
-135.435420307
 20
-62.3296996088
 30
30.6222772421
  0
VERTEX
  8
0
 10
-139.435420307
 20
-62.3296996088
 30
30.6222777282
  0
VERTEX
  8
0
 10
-139.435420307
 20
-70.3296996088
 30
30.6222741003
  0
VERTEX
  8
0
 10
-132.435420307
 20
-70.3296996088
 30
30.6222732497
  0
VERTEX
  8
0
 10
-132.435420307
 20
-141.175081515
 30
30.6222411222
  0
VERTEX
  8
0
 10
-125.259204307
 20
-137.350664515
 30
30.6222419845
  0
VERTEX
  8
0
 10
-123.149183995
 20
-141.100329026
 30
30.6222400277
  0
VERTEX
  8
0
 10
-121.149182006
 20
-144.564429493
 30
30.6222382137
  0
VERTEX
  8
0
 10
-128.07738294
 20
-148.56443347
 30
30.6222372416
  0
VERTEX
  8
0
 10
-130.077384929
 20
-145.100333003
 30
30.6222390556
  0
VERTEX
  8
0
 10
-132.435420307
 20
-146.545778515
 30
30.6222386866
  0
VERTEX
  8
0
 10
-132.435420307
 20
-188.494524515
 30
30.6222196634
  0
VERTEX
  8
0
 10
-125.128390307
 20
-184.685442515
 30
30.6222205029
  0
VERTEX
  8
0
 10
-123.149183995
 20
-188.243186168
 30
30.622218649
  0
VERTEX
  8
0
 10
-121.149182006
 20
-191.707286635
 30
30.622216835
  0
VERTEX
  8
0
 10
-128.07738294
 20
-195.707290613
 30
30.6222158629
  0
VERTEX
  8
0
 10
-130.077384929
 20
-192.243190146
 30
30.6222176769
  0
VERTEX
  8
0
 10
-132.435420307
 20
-193.746889515
 30
30.6222172815
  0
VERTEX
  8
0
 10
-132.435420307
 20
-235.466692515
 30
30.6221983621
  0
VERTEX
  8
0
 10
-125.223582307
 20
-231.755678515
 30
30.6221991687
  0
VERTEX
  8
0
 10
-123.149183995
 20
-235.386043311
 30
30.6221972703
  0
VERTEX
  8
0
 10
-121.149182006
 20
-238.850143778
 30
30.6221954563
  0
VERTEX
  8
0
 10
-128.07738294
 20
-242.850147756
 30
30.6221944842
  0
VERTEX
  8
0
 10
-130.077384929
 20
-239.386047289
 30
30.6221962982
  0
VERTEX
  8
0
 10
-132.435420307
 20
-240.770326515
 30
30.622195957
  0
VERTEX
  8
0
 10
-132.435420307
 20
-261.710250761
 30
30.622186461
  0
VERTEX
  8
0
 10
-135.435420307
 20
-261.710250761
 30
30.6221868255
  0
VERTEX
  8
0
 10
-135.435420307
 20
-257.710250761
 30
30.6221886395
  0
VERTEX
  8
0
 10
-139.435420307
 20
-257.710250761
 30
30.6221891255
  0
VERTEX
  8
0
 10
-139.435420307
 20
-265.710250761
 30
30.6221854976
  0
VERTEX
  8
0
 10
-132.435420307
 20
-265.710250761
 30
30.622184647
  0
VERTEX
  8
0
 10
-132.435420307
 20
-282.537676515
 30
30.622177016
  0
VERTEX
  8
0
 10
-125.168376307
 20
-278.834734515
 30
30.6221778122
  0
VERTEX
  8
0
 10
-123.149183995
 20
-282.528900454
 30
30.6221758916
  0
VERTEX
  8
0
 10
-121.149182006
 20
-285.993000921
 30
30.6221740776
  0
VERTEX
  8
0
 10
-128.07738294
 20
-289.993004899
 30
30.6221731055
  0
VERTEX
  8
0
 10
-130.077384929
 20
-286.528904432
 30
30.6221749195
  0
VERTEX
  8
0
 10
-132.435420307
 20
-288.141893515
 30
30.6221744745
  0
VERTEX
  8
0
 10
-132.435420307
 20
-329.670458515
 30
30.6221556419
  0
VERTEX
  8
0
 10
-125.350703307
 20
-325.783647515
 30
30.6221565436
  0
VERTEX
  8
0
 10
-123.149183995
 20
-329.671757597
 30
30.6221545129
  0
VERTEX
  8
0
 10
-121.149182006
 20
-333.135858064
 30
30.6221526989
  0
VERTEX
  8
0
 10
-128.07738294
 20
-337.135862042
 30
30.6221517268
  0
VERTEX
  8
0
 10
-130.077384929
 20
-333.671761575
 30
30.6221535408
  0
VERTEX
  8
0
 10
-132.435420307
 20
-335.195116515
 30
30.6221531365
  0
VERTEX
  8
0
 10
-132.435420307
 20
-377.102526515
 30
30.622134132
  0
VERTEX
  8
0
 10
-125.149707307
 20
-373.101610515
 30
30.6221350611
  0
VERTEX
  8
0
 10
-123.149183995
 20
-376.81461474
 30
30.6221331342
  0
VERTEX
  8
0
 10
-121.149182006
 20
-380.278715207
 30
30.6221313202
  0
VERTEX
  8
0
 10
-128.07738294
 20
-384.278719184
 30
30.6221303481
  0
VERTEX
  8
0
 10
-130.077384929
 20
-380.814618718
 30
30.6221321621
  0
VERTEX
  8
0
 10
-132.435420307
 20
-382.147829188
 30
30.622131844
  0
VERTEX
  8
0
 10
-132.435420307
 20
-423.885794001
 30
30.6221129164
  0
VERTEX
  8
0
 10
-125.3162093
 20
-420.133963324
 30
30.6221137527
  0
VERTEX
  8
0
 10
-123.149183995
 20
-423.957471883
 30
30.6221117555
  0
VERTEX
  8
0
 10
-121.149182006
 20
-427.42157235
 30
30.6221099415
  0
VERTEX
  8
0
 10
-128.07738294
 20
-431.421576327
 30
30.6221089694
  0
VERTEX
  8
0
 10
-130.077384929
 20
-427.95747586
 30
30.6221107834
  0
VERTEX
  8
0
 10
-132.435420307
 20
-429.637923032
 30
30.6221103079
  0
VERTEX
  8
0
 10
-132.435420307
 20
-457.090801914
 30
30.6220978583
  0
VERTEX
  8
0
 10
-135.435420307
 20
-457.090801914
 30
30.6220982228
  0
VERTEX
  8
0
 10
-135.435420307
 20
-453.090801914
 30
30.6221000368
  0
VERTEX
  8
0
 10
-139.435420307
 20
-453.090801914
 30
30.6221005228
  0
VERTEX
  8
0
 10
-139.435420307
 20
-461.090801914
 30
30.6220968949
  0
VERTEX
  8
0
 10
-132.435420307
 20
-461.090801914
 30
30.6220960444
  0
VERTEX
  8
0
 10
-132.435420307
 20
-471.247972522
 30
30.6220914382
  0
VERTEX
  8
0
 10
-125.163127307
 20
-467.504564515
 30
30.6220922521
  0
VERTEX
  8
0
 10
-123.149183995
 20
-471.100329026
 30
30.6220903768
  0
VERTEX
  8
0
 10
-121.149182006
 20
-474.564429492
 30
30.6220885628
  0
VERTEX
  8
0
 10
-128.07738294
 20
-478.56443347
 30
30.6220875907
  0
VERTEX
  8
0
 10
-130.077384929
 20
-475.100333003
 30
30.6220894047
  0
VERTEX
  8
0
 10
-132.435420307
 20
-476.312488884
 30
30.6220891415
  0
VERTEX
  8
0
 10
-132.435420307
 20
-481.428895892
 30
30.6220868213
  0
VERTEX
  8
0
 10
-28.3561687913
 20
-481.428895892
 30
30.6220741744
  0
VERTEX
  8
0
 10
-28.3561687913
 20
-450.839821429
 30
30.6220880462
  0
VERTEX
  8
0
 10
-25.3561687913
 20
-450.839821429
 30
30.6220876817
  0
VERTEX
  8
0
 10
-25.3561687913
 20
-455.839821429
 30
30.6220854142
  0
VERTEX
  8
0
 10
-21.3561687913
 20
-455.839821429
 30
30.6220849282
  0
VERTEX
  8
0
 10
-21.3561687913
 20
-445.839821429
 30
30.6220894631
  0
VERTEX
  8
0
 10
-28.3561687913
 20
-445.839821429
 30
30.6220903136
  0
VERTEX
  8
0
 10
-28.3561687913
 20
-256.976846239
 30
30.6221759607
  0
VERTEX
  8
0
 10
-25.3561687913
 20
-256.976846239
 30
30.6221755961
  0
VERTEX
  8
0
 10
-25.3561687913
 20
-261.976846239
 30
30.6221733287
  0
VERTEX
  8
0
 10
-21.3561687913
 20
-261.976846239
 30
30.6221728426
  0
VERTEX
  8
0
 10
-21.3561687913
 20
-251.976846239
 30
30.6221773775
  0
VERTEX
  8
0
 10
-28.3561687913
 20
-251.976846239
 30
30.6221782281
  0
VERTEX
  8
0
 10
-28.3561687913
 20
-63.1138710493
 30
30.6222638751
  0
VERTEX
  8
0
 10
-25.3561687913
 20
-63.1138710493
 30
30.6222635106
  0
VERTEX
  8
0
 10
-25.3561687913
 20
-68.1138710493
 30
30.6222612431
  0
VERTEX
  8
0
 10
-21.3561687913
 20
-68.1138710493
 30
30.6222607571
  0
VERTEX
  8
0
 10
-21.3561687913
 20
-58.1138710493
 30
30.622265292
  0
SEQEND
  8
0
  0
POLYLINE
  8
0
 62
7
 70
1
 66
1
 10
0.0
 20
0.0
 30
0.0
  0
VERTEX
  8
0
 10
-117.392418508
 20
-119.690817435
 30
30.6222490371
 42
1.0
  0
VERTEX
  8
0
 10
-111.249306105
 20
-130.410603595
 30
30.6222434294
  0
VERTEX
  8
0
 10
-48.6253329468
 20
-94.5231240776
 30
30.6222520943
 42
1.0
  0
VERTEX
  8
0
 10
-54.7684453498
 20
-83.8033379177
 30
30.6222577021
  0
SEQEND
  8
0
  0
ENDBLK
  0
ENDSEC
  0
SECTION
  2
ENTITIES
  0
INSERT
  2
SKETCH001
  8
0
 62
7
 10
0.0
 20
0.0
 30
0.0
  0
ENDSEC
  0
EOF
