  0
SECTION
  2
HEADER
  9
$ACADVER
  1
AC1009
  9
$INSBASE
 10
0.0
 20
0.0
 30
0.0
  9
$EXTMIN
 10
0.0
 20
0.0
 30
0.0
  9
$EXTMAX
 10
0.0
 20
0.0
 30
0.0
  0
ENDSEC
  0
SECTION
  2
TABLES
  0
TABLE
  2
VPORT
 70
0
  0
ENDTAB
  0
TABLE
  2
LTYPE
 70
1
  0
LTYPE
  2
CONTINUOUS
 70
0
  3
Solid line
 72
65
 73
0
 40
0.0
  0
ENDTAB
  0
TABLE
  2
LAYER
 70
1
  0
LAYER
  2
0
 70
64
 62
7
  6
continuous
  0
ENDTAB
  0
TABLE
  2
STYLE
 70
1
  0
STYLE
  2
STANDARD
 70
0
 40
0
 41
1.0
 50
0.0
 71
0
 42
1
 3
ARIAL.TTF
 4

  0
ENDTAB
  0
TABLE
  2
VIEW
 70
0
  0
ENDTAB
  0
ENDSEC
  0
SECTION
  2
BLOCKS
  0
BLOCK
  8
0
  2
SKETCH006
 70
0
 10
0.0
 20
0.0
 30
0.0
  3
SKETCH006
  0
POLYLINE
  8
0
 62
7
 70
1
 66
1
 10
0.0
 20
0.0
 30
0.0
  0
VERTEX
  8
0
 10
-195.670839
 20
220.042432184
 30
-113.0
  0
VERTEX
  8
0
 10
282.397516
 20
220.042432184
 30
-113.0
  0
VERTEX
  8
0
 10
282.397516
 20
-9.95756781554
 30
-113.0
  0
VERTEX
  8
0
 10
-195.670839
 20
-9.95756781554
 30
-113.0
  0
SEQEND
  8
0
  0
POLYLINE
  8
0
 62
7
 70
1
 66
1
 10
0.0
 20
0.0
 30
0.0
  0
VERTEX
  8
0
 10
-149.111884678
 20
216.017374669
 30
-113.0
  0
VERTEX
  8
0
 10
-141.011884678
 20
216.017374669
 30
-113.0
  0
VERTEX
  8
0
 10
-141.011884678
 20
210.017374669
 30
-113.0
  0
VERTEX
  8
0
 10
-149.111884678
 20
210.017374669
 30
-113.0
  0
SEQEND
  8
0
  0
POLYLINE
  8
0
 62
7
 70
1
 66
1
 10
0.0
 20
0.0
 30
0.0
  0
VERTEX
  8
0
 10
-149.010357
 20
-0.010916815543
 30
-113.0
  0
VERTEX
  8
0
 10
-140.910357
 20
-0.010916815543
 30
-113.0
  0
VERTEX
  8
0
 10
-140.910357
 20
-6.01091681554
 30
-113.0
  0
VERTEX
  8
0
 10
-149.010357
 20
-6.01091681554
 30
-113.0
  0
SEQEND
  8
0
  0
POLYLINE
  8
0
 62
7
 70
1
 66
1
 10
0.0
 20
0.0
 30
0.0
  0
VERTEX
  8
0
 10
56.0120543219
 20
0.002383493662
 30
-113.0
  0
VERTEX
  8
0
 10
64.1120543219
 20
0.002383493662
 30
-113.0
  0
VERTEX
  8
0
 10
64.1120543219
 20
-5.99761650634
 30
-113.0
  0
VERTEX
  8
0
 10
56.0120543219
 20
-5.99761650634
 30
-113.0
  0
SEQEND
  8
0
  0
POLYLINE
  8
0
 62
7
 70
1
 66
1
 10
0.0
 20
0.0
 30
0.0
  0
VERTEX
  8
0
 10
232.823175
 20
0.008625137424
 30
-113.0
  0
VERTEX
  8
0
 10
240.923175
 20
0.008625137424
 30
-113.0
  0
VERTEX
  8
0
 10
240.923175
 20
-5.99137486258
 30
-113.0
  0
VERTEX
  8
0
 10
232.823175
 20
-5.99137486258
 30
-113.0
  0
SEQEND
  8
0
  0
POLYLINE
  8
0
 62
7
 70
1
 66
1
 10
0.0
 20
0.0
 30
0.0
  0
VERTEX
  8
0
 10
232.723755
 20
216.066076816
 30
-113.0
  0
VERTEX
  8
0
 10
240.823755
 20
216.066076816
 30
-113.0
  0
VERTEX
  8
0
 10
240.823755
 20
210.066076816
 30
-113.0
  0
VERTEX
  8
0
 10
232.723755
 20
210.066076816
 30
-113.0
  0
SEQEND
  8
0
  0
POLYLINE
  8
0
 62
7
 70
1
 66
1
 10
0.0
 20
0.0
 30
0.0
  0
VERTEX
  8
0
 10
56.039429
 20
216.018214184
 30
-113.0
  0
VERTEX
  8
0
 10
64.139429
 20
216.018214184
 30
-113.0
  0
VERTEX
  8
0
 10
64.139429
 20
210.018214184
 30
-113.0
  0
VERTEX
  8
0
 10
56.039429
 20
210.018214184
 30
-113.0
  0
SEQEND
  8
0
  0
ENDBLK
  0
ENDSEC
  0
SECTION
  2
ENTITIES
  0
INSERT
  2
SKETCH006
  8
0
 62
7
 10
0.0
 20
0.0
 30
0.0
  0
ENDSEC
  0
EOF
