  0
SECTION
  2
HEADER
  9
$ACADVER
  1
AC1009
  9
$INSBASE
 10
0.0
 20
0.0
 30
0.0
  9
$EXTMIN
 10
0.0
 20
0.0
 30
0.0
  9
$EXTMAX
 10
0.0
 20
0.0
 30
0.0
  0
ENDSEC
  0
SECTION
  2
TABLES
  0
TABLE
  2
VPORT
 70
0
  0
ENDTAB
  0
TABLE
  2
LTYPE
 70
1
  0
LTYPE
  2
CONTINUOUS
 70
0
  3
Solid line
 72
65
 73
0
 40
0.0
  0
ENDTAB
  0
TABLE
  2
LAYER
 70
1
  0
LAYER
  2
0
 70
64
 62
7
  6
continuous
  0
ENDTAB
  0
TABLE
  2
STYLE
 70
1
  0
STYLE
  2
STANDARD
 70
0
 40
0
 41
1.0
 50
0.0
 71
0
 42
1
 3
ARIAL.TTF
 4

  0
ENDTAB
  0
TABLE
  2
VIEW
 70
0
  0
ENDTAB
  0
ENDSEC
  0
SECTION
  2
BLOCKS
  0
BLOCK
  8
0
  2
SKETCH002
 70
0
 10
0.0
 20
0.0
 30
0.0
  3
SKETCH002
  0
POLYLINE
  8
0
 62
7
 70
1
 66
1
 10
0.0
 20
0.0
 30
0.0
  0
VERTEX
  8
0
 10
-398.408930802
 20
-105.0
 30
-8.0
  0
VERTEX
  8
0
 10
-509.668852
 20
-105.0
 30
-8.0
  0
VERTEX
  8
0
 10
-509.668852
 20
105.0
 30
-8.0
  0
VERTEX
  8
0
 10
-398.408930802
 20
105.0
 30
-8.0
  0
VERTEX
  8
0
 10
-398.408930802
 20
111.0
 30
-8.0
  0
VERTEX
  8
0
 10
-402.408930802
 20
111.0
 30
-8.0
  0
VERTEX
  8
0
 10
-402.408930802
 20
115.0
 30
-8.0
  0
VERTEX
  8
0
 10
-394.408930802
 20
115.0
 30
-8.0
  0
VERTEX
  8
0
 10
-394.408930802
 20
105.0
 30
-8.0
  0
VERTEX
  8
0
 10
-156.431421954
 20
105.0
 30
-8.0
  0
VERTEX
  8
0
 10
-156.431421954
 20
111.0
 30
-8.0
  0
VERTEX
  8
0
 10
-160.431421954
 20
111.0
 30
-8.0
  0
VERTEX
  8
0
 10
-160.431421954
 20
115.0
 30
-8.0
  0
VERTEX
  8
0
 10
-152.431421954
 20
115.0
 30
-8.0
  0
VERTEX
  8
0
 10
-152.431421954
 20
105.0
 30
-8.0
  0
VERTEX
  8
0
 10
-28.3562
 20
105.0
 30
-8.0
  0
VERTEX
  8
0
 10
-28.3562
 20
-105.0
 30
-8.0
  0
VERTEX
  8
0
 10
-152.431421954
 20
-105.0
 30
-8.0
  0
VERTEX
  8
0
 10
-152.431421954
 20
-115.0
 30
-8.0
  0
VERTEX
  8
0
 10
-160.431421954
 20
-115.0
 30
-8.0
  0
VERTEX
  8
0
 10
-160.431421954
 20
-111.0
 30
-8.0
  0
VERTEX
  8
0
 10
-156.431421954
 20
-111.0
 30
-8.0
  0
VERTEX
  8
0
 10
-156.431421954
 20
-105.0
 30
-8.0
  0
VERTEX
  8
0
 10
-394.408930802
 20
-105.0
 30
-8.0
  0
VERTEX
  8
0
 10
-394.408930802
 20
-115.0
 30
-8.0
  0
VERTEX
  8
0
 10
-402.408930802
 20
-115.0
 30
-8.0
  0
VERTEX
  8
0
 10
-402.408930802
 20
-111.0
 30
-8.0
  0
VERTEX
  8
0
 10
-398.408930802
 20
-111.0
 30
-8.0
  0
SEQEND
  8
0
  0
POLYLINE
  8
0
 62
7
 70
1
 66
1
 10
0.0
 20
0.0
 30
0.0
  0
VERTEX
  8
0
 10
-119.25078
 20
33.018089
 30
-8.0
  0
VERTEX
  8
0
 10
-118.944861
 20
32.988903
 30
-8.0
  0
VERTEX
  8
0
 10
-118.944861
 20
38.521581
 30
-8.0
  0
VERTEX
  8
0
 10
-112.911662
 20
38.521581
 30
-8.0
  0
VERTEX
  8
0
 10
-112.911662
 20
-31.917607
 30
-8.0
  0
VERTEX
  8
0
 10
-118.944861
 20
-31.917607
 30
-8.0
  0
VERTEX
  8
0
 10
-118.944861
 20
-25.445026
 30
-8.0
  0
VERTEX
  8
0
 10
-119.25078
 20
-25.4321456299
 30
-8.0
 42
-1.0
  0
VERTEX
  8
0
 10
-122.887682
 20
-25.4321456299
 30
-8.0
  0
VERTEX
  8
0
 10
-122.887682
 20
33.018089
 30
-8.0
 42
-1.0
  0
SEQEND
  8
0
  0
POLYLINE
  8
0
 62
7
 70
1
 66
1
 10
0.0
 20
0.0
 30
0.0
  0
VERTEX
  8
0
 10
-166.479843808
 20
34.0904923337
 30
-8.0
  0
VERTEX
  8
0
 10
-166.479843808
 20
38.442554
 30
-8.0
  0
VERTEX
  8
0
 10
-159.875411
 20
38.442554
 30
-8.0
  0
VERTEX
  8
0
 10
-159.875411
 20
-31.996634
 30
-8.0
  0
VERTEX
  8
0
 10
-166.479843808
 20
-31.996634
 30
-8.0
  0
VERTEX
  8
0
 10
-166.479843808
 20
-26.461907471
 30
-8.0
 42
-0.744712191158
  0
VERTEX
  8
0
 10
-170.007941896
 20
-25.4068501311
 30
-8.0
  0
VERTEX
  8
0
 10
-170.007941896
 20
33.0354349938
 30
-8.0
 42
-0.744712191158
  0
SEQEND
  8
0
  0
POLYLINE
  8
0
 62
7
 70
1
 66
1
 10
0.0
 20
0.0
 30
0.0
  0
VERTEX
  8
0
 10
-213.843383
 20
34.251431301
 30
-8.0
  0
VERTEX
  8
0
 10
-213.843383
 20
38.940617
 30
-8.0
  0
VERTEX
  8
0
 10
-206.846999
 20
38.940617
 30
-8.0
  0
VERTEX
  8
0
 10
-206.846999
 20
-32.113021
 30
-8.0
  0
VERTEX
  8
0
 10
-213.843383
 20
-32.113021
 30
-8.0
  0
VERTEX
  8
0
 10
-213.843383
 20
-26.5527286642
 30
-8.0
 42
-0.667095503776
  0
VERTEX
  8
0
 10
-216.686392598
 20
-25.3701216304
 30
-8.0
  0
VERTEX
  8
0
 10
-216.686392598
 20
33.0688242673
 30
-8.0
 42
-0.667095503776
  0
SEQEND
  8
0
  0
POLYLINE
  8
0
 62
7
 70
1
 66
1
 10
0.0
 20
0.0
 30
0.0
  0
VERTEX
  8
0
 10
-260.810983657
 20
34.2576990867
 30
-8.0
  0
VERTEX
  8
0
 10
-260.810983657
 20
39.042813
 30
-8.0
  0
VERTEX
  8
0
 10
-254.229644
 20
39.042813
 30
-8.0
  0
VERTEX
  8
0
 10
-254.229644
 20
-31.830115
 30
-8.0
  0
VERTEX
  8
0
 10
-260.810983657
 20
-31.830115
 30
-8.0
  0
VERTEX
  8
0
 10
-260.810983657
 20
-26.4477709793
 30
-8.0
 42
-0.679014692938
  0
VERTEX
  8
0
 10
-263.69756855
 20
-25.3022189561
 30
-8.0
  0
VERTEX
  8
0
 10
-263.69756855
 20
33.1121470635
 30
-8.0
 42
-0.679014692938
  0
SEQEND
  8
0
  0
POLYLINE
  8
0
 62
7
 70
1
 66
1
 10
0.0
 20
0.0
 30
0.0
  0
VERTEX
  8
0
 10
-308.007682177
 20
34.2837932255
 30
-8.0
  0
VERTEX
  8
0
 10
-308.007682177
 20
38.899193
 30
-8.0
  0
VERTEX
  8
0
 10
-301.44821
 20
38.899193
 30
-8.0
  0
VERTEX
  8
0
 10
-301.44821
 20
-31.705985
 30
-8.0
  0
VERTEX
  8
0
 10
-308.007682177
 20
-31.705985
 30
-8.0
  0
VERTEX
  8
0
 10
-308.007682177
 20
-26.5437490679
 30
-8.0
 42
-0.644957090661
  0
VERTEX
  8
0
 10
-310.72713006
 20
-25.3124732782
 30
-8.0
  0
VERTEX
  8
0
 10
-310.72713006
 20
33.0525174358
 30
-8.0
 42
-0.644957090661
  0
SEQEND
  8
0
  0
POLYLINE
  8
0
 62
7
 70
1
 66
1
 10
0.0
 20
0.0
 30
0.0
  0
VERTEX
  8
0
 10
-355.097747
 20
34.9594175448
 30
-8.0
  0
VERTEX
  8
0
 10
-355.097747
 20
38.801709
 30
-8.0
  0
VERTEX
  8
0
 10
-348.638701
 20
38.801709
 30
-8.0
  0
VERTEX
  8
0
 10
-348.638701
 20
-31.673145
 30
-8.0
  0
VERTEX
  8
0
 10
-355.097747
 20
-31.673145
 30
-8.0
  0
VERTEX
  8
0
 10
-355.097747
 20
-26.8865549496
 30
-8.0
 42
-0.561198306279
  0
VERTEX
  8
0
 10
-357.741727844
 20
-25.2727972635
 30
-8.0
  0
VERTEX
  8
0
 10
-357.741727844
 20
33.3456598587
 30
-8.0
 42
-0.561198306279
  0
SEQEND
  8
0
  0
POLYLINE
  8
0
 62
7
 70
1
 66
1
 10
0.0
 20
0.0
 30
0.0
  0
VERTEX
  8
0
 10
-402.235587239
 20
34.9675390859
 30
-8.0
  0
VERTEX
  8
0
 10
-402.235587239
 20
38.813568
 30
-8.0
  0
VERTEX
  8
0
 10
-395.653289
 20
38.813568
 30
-8.0
  0
VERTEX
  8
0
 10
-395.653289
 20
-31.997551
 30
-8.0
  0
VERTEX
  8
0
 10
-402.235587239
 20
-31.997551
 30
-8.0
  0
VERTEX
  8
0
 10
-402.235587239
 20
-27.0046840268
 30
-8.0
 42
-0.527170718158
  0
VERTEX
  8
0
 10
-404.807403308
 20
-25.2433140754
 30
-8.0
  0
VERTEX
  8
0
 10
-404.807403308
 20
33.2061691345
 30
-8.0
 42
-0.527170718158
  0
SEQEND
  8
0
  0
POLYLINE
  8
0
 62
7
 70
1
 66
1
 10
0.0
 20
0.0
 30
0.0
  0
VERTEX
  8
0
 10
-449.339565573
 20
34.7813776834
 30
-8.0
  0
VERTEX
  8
0
 10
-449.339565573
 20
38.962726
 30
-8.0
  0
VERTEX
  8
0
 10
-442.701293
 20
38.962726
 30
-8.0
  0
VERTEX
  8
0
 10
-442.701293
 20
-31.99755
 30
-8.0
  0
VERTEX
  8
0
 10
-449.339565573
 20
-31.99755
 30
-8.0
  0
VERTEX
  8
0
 10
-449.339565573
 20
-26.7169337347
 30
-8.0
 42
-0.520272855857
  0
VERTEX
  8
0
 10
-451.542194512
 20
-25.1731160515
 30
-8.0
  0
VERTEX
  8
0
 10
-451.542194512
 20
33.2375600001
 30
-8.0
 42
-0.520272855857
  0
SEQEND
  8
0
  0
POLYLINE
  8
0
 62
7
 70
1
 66
1
 10
0.0
 20
0.0
 30
0.0
  0
VERTEX
  8
0
 10
-468.389586221
 20
33.2509970001
 30
-8.0
 42
1.0
  0
VERTEX
  8
0
 10
-471.921339747
 20
33.2509970001
 30
-8.0
  0
VERTEX
  8
0
 10
-471.921339747
 20
-25.1992376299
 30
-8.0
 42
1.0
  0
VERTEX
  8
0
 10
-468.389586221
 20
-25.1992376299
 30
-8.0
  0
SEQEND
  8
0
  0
POLYLINE
  8
0
 62
7
 70
1
 66
1
 10
0.0
 20
0.0
 30
0.0
  0
VERTEX
  8
0
 10
-461.678893221
 20
33.2465180001
 30
-8.0
 42
1.0
  0
VERTEX
  8
0
 10
-465.133025
 20
33.2465180001
 30
-8.0
  0
VERTEX
  8
0
 10
-465.133025
 20
-25.2037166299
 30
-8.0
 42
1.0
  0
VERTEX
  8
0
 10
-461.678893221
 20
-25.2037166299
 30
-8.0
  0
SEQEND
  8
0
  0
POLYLINE
  8
0
 62
7
 70
1
 66
1
 10
0.0
 20
0.0
 30
0.0
  0
VERTEX
  8
0
 10
-454.968200221
 20
33.2420390001
 30
-8.0
 42
1.0
  0
VERTEX
  8
0
 10
-458.222272827
 20
33.2420390001
 30
-8.0
  0
VERTEX
  8
0
 10
-458.222272827
 20
-25.2081956299
 30
-8.0
 42
1.0
  0
VERTEX
  8
0
 10
-454.968200221
 20
-25.2081956299
 30
-8.0
  0
SEQEND
  8
0
  0
POLYLINE
  8
0
 62
7
 70
1
 66
1
 10
0.0
 20
0.0
 30
0.0
  0
VERTEX
  8
0
 10
-434.582735759
 20
33.2285641345
 30
-8.0
 42
1.0
  0
VERTEX
  8
0
 10
-438.290253
 20
33.2285641345
 30
-8.0
  0
VERTEX
  8
0
 10
-438.290253
 20
-25.2216326299
 30
-8.0
 42
1.0
  0
VERTEX
  8
0
 10
-434.582735759
 20
-25.2216326299
 30
-8.0
  0
SEQEND
  8
0
  0
POLYLINE
  8
0
 62
7
 70
1
 66
1
 10
0.0
 20
0.0
 30
0.0
  0
VERTEX
  8
0
 10
-427.872042759
 20
33.2240851345
 30
-8.0
 42
1.0
  0
VERTEX
  8
0
 10
-431.650175241
 20
33.2240851345
 30
-8.0
  0
VERTEX
  8
0
 10
-431.650175241
 20
-25.2261116299
 30
-8.0
 42
1.0
  0
VERTEX
  8
0
 10
-427.872042759
 20
-25.2261116299
 30
-8.0
  0
SEQEND
  8
0
  0
POLYLINE
  8
0
 62
7
 70
1
 66
1
 10
0.0
 20
0.0
 30
0.0
  0
VERTEX
  8
0
 10
-421.161349759
 20
33.2196061345
 30
-8.0
 42
1.0
  0
VERTEX
  8
0
 10
-424.868866933
 20
33.2196061345
 30
-8.0
  0
VERTEX
  8
0
 10
-424.868866933
 20
-25.2305906299
 30
-8.0
 42
1.0
  0
VERTEX
  8
0
 10
-421.161349759
 20
-25.2305906299
 30
-8.0
  0
SEQEND
  8
0
  0
POLYLINE
  8
0
 62
7
 70
1
 66
1
 10
0.0
 20
0.0
 30
0.0
  0
VERTEX
  8
0
 10
-414.450656759
 20
33.2151271345
 30
-8.0
 42
1.0
  0
VERTEX
  8
0
 10
-418.228789241
 20
33.2151271345
 30
-8.0
  0
VERTEX
  8
0
 10
-418.228789241
 20
-25.2350696299
 30
-8.0
 42
1.0
  0
VERTEX
  8
0
 10
-414.450656759
 20
-25.2350696299
 30
-8.0
  0
SEQEND
  8
0
  0
POLYLINE
  8
0
 62
7
 70
1
 66
1
 10
0.0
 20
0.0
 30
0.0
  0
VERTEX
  8
0
 10
-407.739963759
 20
33.2106481345
 30
-8.0
 42
1.0
  0
VERTEX
  8
0
 10
-411.447481
 20
33.2106481345
 30
-8.0
  0
VERTEX
  8
0
 10
-411.447481
 20
-25.2395486299
 30
-8.0
 42
1.0
  0
VERTEX
  8
0
 10
-407.739963759
 20
-25.2395486299
 30
-8.0
  0
SEQEND
  8
0
  0
POLYLINE
  8
0
 62
7
 70
1
 66
1
 10
0.0
 20
0.0
 30
0.0
  0
VERTEX
  8
0
 10
-387.674309896
 20
33.197249
 30
-8.0
 42
1.0
  0
VERTEX
  8
0
 10
-391.325301901
 20
33.197249
 30
-8.0
  0
VERTEX
  8
0
 10
-391.325301901
 20
-25.2529856299
 30
-8.0
 42
1.0
  0
VERTEX
  8
0
 10
-387.674309896
 20
-25.2529856299
 30
-8.0
  0
SEQEND
  8
0
  0
POLYLINE
  8
0
 62
7
 70
1
 66
1
 10
0.0
 20
0.0
 30
0.0
  0
VERTEX
  8
0
 10
-380.963616896
 20
33.19277
 30
-8.0
 42
1.0
  0
VERTEX
  8
0
 10
-384.604709
 20
33.19277
 30
-8.0
  0
VERTEX
  8
0
 10
-384.604709
 20
-25.2574646299
 30
-8.0
 42
1.0
  0
VERTEX
  8
0
 10
-380.963616896
 20
-25.2574646299
 30
-8.0
  0
SEQEND
  8
0
  0
POLYLINE
  8
0
 62
7
 70
1
 66
1
 10
0.0
 20
0.0
 30
0.0
  0
VERTEX
  8
0
 10
-374.252923896
 20
33.188291
 30
-8.0
 42
1.0
  0
VERTEX
  8
0
 10
-377.908106004
 20
33.188291
 30
-8.0
  0
VERTEX
  8
0
 10
-377.908106004
 20
-25.2619436299
 30
-8.0
 42
1.0
  0
VERTEX
  8
0
 10
-374.252923896
 20
-25.2619436299
 30
-8.0
  0
SEQEND
  8
0
  0
POLYLINE
  8
0
 62
7
 70
1
 66
1
 10
0.0
 20
0.0
 30
0.0
  0
VERTEX
  8
0
 10
-367.542230896
 20
33.183812
 30
-8.0
 42
1.0
  0
VERTEX
  8
0
 10
-371.187513104
 20
33.183812
 30
-8.0
  0
VERTEX
  8
0
 10
-371.187513104
 20
-25.2664226299
 30
-8.0
 42
1.0
  0
VERTEX
  8
0
 10
-367.542230896
 20
-25.2664226299
 30
-8.0
  0
SEQEND
  8
0
  0
POLYLINE
  8
0
 62
7
 70
1
 66
1
 10
0.0
 20
0.0
 30
0.0
  0
VERTEX
  8
0
 10
-360.831537896
 20
33.179333
 30
-8.0
 42
1.0
  0
VERTEX
  8
0
 10
-364.47263
 20
33.179333
 30
-8.0
  0
VERTEX
  8
0
 10
-364.47263
 20
-25.2709016299
 30
-8.0
 42
1.0
  0
VERTEX
  8
0
 10
-360.831537896
 20
-25.2709016299
 30
-8.0
  0
SEQEND
  8
0
  0
POLYLINE
  8
0
 62
7
 70
1
 66
1
 10
0.0
 20
0.0
 30
0.0
  0
VERTEX
  8
0
 10
-341.003666344
 20
33.0749124358
 30
-8.0
 42
1.0
  0
VERTEX
  8
0
 10
-344.040533656
 20
33.0749124358
 30
-8.0
  0
VERTEX
  8
0
 10
-344.040533656
 20
-25.2843386299
 30
-8.0
 42
1.0
  0
VERTEX
  8
0
 10
-341.003666344
 20
-25.2843386299
 30
-8.0
  0
SEQEND
  8
0
  0
POLYLINE
  8
0
 62
7
 70
1
 66
1
 10
0.0
 20
0.0
 30
0.0
  0
VERTEX
  8
0
 10
-334.292973344
 20
33.0704334358
 30
-8.0
 42
1.0
  0
VERTEX
  8
0
 10
-337.929953077
 20
33.0704334358
 30
-8.0
  0
VERTEX
  8
0
 10
-337.929953077
 20
-25.2888176299
 30
-8.0
 42
1.0
  0
VERTEX
  8
0
 10
-334.292973344
 20
-25.2888176299
 30
-8.0
  0
SEQEND
  8
0
  0
POLYLINE
  8
0
 62
7
 70
1
 66
1
 10
0.0
 20
0.0
 30
0.0
  0
VERTEX
  8
0
 10
-327.582280344
 20
33.0659544358
 30
-8.0
 42
1.0
  0
VERTEX
  8
0
 10
-331.219337809
 20
33.0659544358
 30
-8.0
  0
VERTEX
  8
0
 10
-331.219337809
 20
-25.2932966299
 30
-8.0
 42
1.0
  0
VERTEX
  8
0
 10
-327.582280344
 20
-25.2932966299
 30
-8.0
  0
SEQEND
  8
0
  0
POLYLINE
  8
0
 62
7
 70
1
 66
1
 10
0.0
 20
0.0
 30
0.0
  0
VERTEX
  8
0
 10
-320.871587344
 20
33.0614754358
 30
-8.0
 42
1.0
  0
VERTEX
  8
0
 10
-323.908454656
 20
33.0614754358
 30
-8.0
  0
VERTEX
  8
0
 10
-323.908454656
 20
-25.2977756299
 30
-8.0
 42
1.0
  0
VERTEX
  8
0
 10
-320.871587344
 20
-25.2977756299
 30
-8.0
  0
SEQEND
  8
0
  0
POLYLINE
  8
0
 62
7
 70
1
 66
1
 10
0.0
 20
0.0
 30
0.0
  0
VERTEX
  8
0
 10
-314.160894344
 20
33.0569964358
 30
-8.0
 42
1.0
  0
VERTEX
  8
0
 10
-317.197683923
 20
33.0569964358
 30
-8.0
  0
VERTEX
  8
0
 10
-317.197683923
 20
-25.3022546905
 30
-8.0
 42
1.0
  0
VERTEX
  8
0
 10
-314.160894344
 20
-25.3022546905
 30
-8.0
  0
SEQEND
  8
0
  0
POLYLINE
  8
0
 62
7
 70
1
 66
1
 10
0.0
 20
0.0
 30
0.0
  0
VERTEX
  8
0
 10
-293.909832047
 20
33.1345420635
 30
-8.0
 42
1.0
  0
VERTEX
  8
0
 10
-297.3657
 20
33.1345420635
 30
-8.0
  0
VERTEX
  8
0
 10
-297.3657
 20
-25.3156916299
 30
-8.0
 42
1.0
  0
VERTEX
  8
0
 10
-293.909832047
 20
-25.3156916299
 30
-8.0
  0
SEQEND
  8
0
  0
POLYLINE
  8
0
 62
7
 70
1
 66
1
 10
0.0
 20
0.0
 30
0.0
  0
VERTEX
  8
0
 10
-287.199139047
 20
33.1300630635
 30
-8.0
 42
1.0
  0
VERTEX
  8
0
 10
-290.655007
 20
33.1300630635
 30
-8.0
  0
VERTEX
  8
0
 10
-290.655007
 20
-25.3201706299
 30
-8.0
 42
1.0
  0
VERTEX
  8
0
 10
-287.199139047
 20
-25.3201706299
 30
-8.0
  0
SEQEND
  8
0
  0
POLYLINE
  8
0
 62
7
 70
1
 66
1
 10
0.0
 20
0.0
 30
0.0
  0
VERTEX
  8
0
 10
-280.488446047
 20
33.1255840635
 30
-8.0
 42
1.0
  0
VERTEX
  8
0
 10
-283.763279953
 20
33.1255840635
 30
-8.0
  0
VERTEX
  8
0
 10
-283.763279953
 20
-25.3246496299
 30
-8.0
 42
1.0
  0
VERTEX
  8
0
 10
-280.488446047
 20
-25.3246496299
 30
-8.0
  0
SEQEND
  8
0
  0
POLYLINE
  8
0
 62
7
 70
1
 66
1
 10
0.0
 20
0.0
 30
0.0
  0
VERTEX
  8
0
 10
-273.777753047
 20
33.1211050635
 30
-8.0
 42
1.0
  0
VERTEX
  8
0
 10
-277.233621
 20
33.1211050635
 30
-8.0
  0
VERTEX
  8
0
 10
-277.233621
 20
-25.3291286299
 30
-8.0
 42
1.0
  0
VERTEX
  8
0
 10
-273.777753047
 20
-25.3291286299
 30
-8.0
  0
SEQEND
  8
0
  0
POLYLINE
  8
0
 62
7
 70
1
 66
1
 10
0.0
 20
0.0
 30
0.0
  0
VERTEX
  8
0
 10
-267.067060047
 20
33.1166260635
 30
-8.0
 42
1.0
  0
VERTEX
  8
0
 10
-270.522928
 20
33.1166260635
 30
-8.0
  0
VERTEX
  8
0
 10
-270.522928
 20
-25.3336076299
 30
-8.0
 42
1.0
  0
VERTEX
  8
0
 10
-267.067060047
 20
-25.3336076299
 30
-8.0
  0
SEQEND
  8
0
  0
POLYLINE
  8
0
 62
7
 70
1
 66
1
 10
0.0
 20
0.0
 30
0.0
  0
VERTEX
  8
0
 10
-246.904918814
 20
33.0912192673
 30
-8.0
 42
1.0
  0
VERTEX
  8
0
 10
-250.390852286
 20
33.0912192673
 30
-8.0
  0
VERTEX
  8
0
 10
-250.390852286
 20
-25.3470446299
 30
-8.0
 42
1.0
  0
VERTEX
  8
0
 10
-246.904918814
 20
-25.3470446299
 30
-8.0
  0
SEQEND
  8
0
  0
POLYLINE
  8
0
 62
7
 70
1
 66
1
 10
0.0
 20
0.0
 30
0.0
  0
VERTEX
  8
0
 10
-240.194225814
 20
33.0867402673
 30
-8.0
 42
1.0
  0
VERTEX
  8
0
 10
-243.680152714
 20
33.0867402673
 30
-8.0
  0
VERTEX
  8
0
 10
-243.680152714
 20
-25.3515236299
 30
-8.0
 42
1.0
  0
VERTEX
  8
0
 10
-240.194225814
 20
-25.3515236299
 30
-8.0
  0
SEQEND
  8
0
  0
POLYLINE
  8
0
 62
7
 70
1
 66
1
 10
0.0
 20
0.0
 30
0.0
  0
VERTEX
  8
0
 10
-233.483532814
 20
33.0822612673
 30
-8.0
 42
1.0
  0
VERTEX
  8
0
 10
-236.818491186
 20
33.0822612673
 30
-8.0
  0
VERTEX
  8
0
 10
-236.818491186
 20
-25.3560026299
 30
-8.0
 42
1.0
  0
VERTEX
  8
0
 10
-233.483532814
 20
-25.3560026299
 30
-8.0
  0
SEQEND
  8
0
  0
POLYLINE
  8
0
 62
7
 70
1
 66
1
 10
0.0
 20
0.0
 30
0.0
  0
VERTEX
  8
0
 10
-226.772839814
 20
33.0777822673
 30
-8.0
 42
1.0
  0
VERTEX
  8
0
 10
-230.25877
 20
33.0777822673
 30
-8.0
  0
VERTEX
  8
0
 10
-230.25877
 20
-25.3604816299
 30
-8.0
 42
1.0
  0
VERTEX
  8
0
 10
-226.772839814
 20
-25.3604816299
 30
-8.0
  0
SEQEND
  8
0
  0
POLYLINE
  8
0
 62
7
 70
1
 66
1
 10
0.0
 20
0.0
 30
0.0
  0
VERTEX
  8
0
 10
-220.062146814
 20
33.0733032673
 30
-8.0
 42
1.0
  0
VERTEX
  8
0
 10
-223.548077
 20
33.0733032673
 30
-8.0
  0
VERTEX
  8
0
 10
-223.548077
 20
-25.3649606299
 30
-8.0
 42
1.0
  0
VERTEX
  8
0
 10
-220.062146814
 20
-25.3649606299
 30
-8.0
  0
SEQEND
  8
0
  0
POLYLINE
  8
0
 62
7
 70
1
 66
1
 10
0.0
 20
0.0
 30
0.0
  0
VERTEX
  8
0
 10
-199.717800009
 20
33.0578299938
 30
-8.0
 42
1.0
  0
VERTEX
  8
0
 10
-203.607424432
 20
33.0578299938
 30
-8.0
  0
VERTEX
  8
0
 10
-203.607424432
 20
-25.3783976299
 30
-8.0
 42
1.0
  0
VERTEX
  8
0
 10
-199.717800009
 20
-25.3783976299
 30
-8.0
  0
SEQEND
  8
0
  0
POLYLINE
  8
0
 62
7
 70
1
 66
1
 10
0.0
 20
0.0
 30
0.0
  0
VERTEX
  8
0
 10
-193.007107009
 20
33.0533509938
 30
-8.0
 42
1.0
  0
VERTEX
  8
0
 10
-196.383748126
 20
33.0533509938
 30
-8.0
  0
VERTEX
  8
0
 10
-196.383748126
 20
-25.3828766299
 30
-8.0
 42
1.0
  0
VERTEX
  8
0
 10
-193.007107009
 20
-25.3828766299
 30
-8.0
  0
SEQEND
  8
0
  0
POLYLINE
  8
0
 62
7
 70
1
 66
1
 10
0.0
 20
0.0
 30
0.0
  0
VERTEX
  8
0
 10
-186.296414009
 20
33.0488719938
 30
-8.0
 42
1.0
  0
VERTEX
  8
0
 10
-189.994612
 20
33.0488719938
 30
-8.0
  0
VERTEX
  8
0
 10
-189.994612
 20
-25.3873556299
 30
-8.0
 42
1.0
  0
VERTEX
  8
0
 10
-186.296414009
 20
-25.3873556299
 30
-8.0
  0
SEQEND
  8
0
  0
POLYLINE
  8
0
 62
7
 70
1
 66
1
 10
0.0
 20
0.0
 30
0.0
  0
VERTEX
  8
0
 10
-179.585721009
 20
33.0443929938
 30
-8.0
 42
1.0
  0
VERTEX
  8
0
 10
-183.475345432
 20
33.0443929938
 30
-8.0
  0
VERTEX
  8
0
 10
-183.475345432
 20
-25.3918346299
 30
-8.0
 42
1.0
  0
VERTEX
  8
0
 10
-179.585721009
 20
-25.3918346299
 30
-8.0
  0
SEQEND
  8
0
  0
POLYLINE
  8
0
 62
7
 70
1
 66
1
 10
0.0
 20
0.0
 30
0.0
  0
VERTEX
  8
0
 10
-172.875028009
 20
33.0399139938
 30
-8.0
 42
1.0
  0
VERTEX
  8
0
 10
-176.634521991
 20
33.0399139938
 30
-8.0
  0
VERTEX
  8
0
 10
-176.634521991
 20
-25.3963136299
 30
-8.0
 42
1.0
  0
VERTEX
  8
0
 10
-172.875028009
 20
-25.3963136299
 30
-8.0
  0
SEQEND
  8
0
  0
POLYLINE
  8
0
 62
7
 70
1
 66
1
 10
0.0
 20
0.0
 30
0.0
  0
VERTEX
  8
0
 10
-152.804245
 20
33.040484
 30
-8.0
 42
1.0
  0
VERTEX
  8
0
 10
-156.441147
 20
33.040484
 30
-8.0
  0
VERTEX
  8
0
 10
-156.441147
 20
-25.4097506299
 30
-8.0
 42
1.0
  0
VERTEX
  8
0
 10
-152.804245
 20
-25.4097506299
 30
-8.0
  0
SEQEND
  8
0
  0
POLYLINE
  8
0
 62
7
 70
1
 66
1
 10
0.0
 20
0.0
 30
0.0
  0
VERTEX
  8
0
 10
-146.093552
 20
33.036005
 30
-8.0
 42
1.0
  0
VERTEX
  8
0
 10
-149.730454
 20
33.036005
 30
-8.0
  0
VERTEX
  8
0
 10
-149.730454
 20
-25.4142296299
 30
-8.0
 42
1.0
  0
VERTEX
  8
0
 10
-146.093552
 20
-25.4142296299
 30
-8.0
  0
SEQEND
  8
0
  0
POLYLINE
  8
0
 62
7
 70
1
 66
1
 10
0.0
 20
0.0
 30
0.0
  0
VERTEX
  8
0
 10
-139.382859
 20
33.031526
 30
-8.0
 42
1.0
  0
VERTEX
  8
0
 10
-143.019761
 20
33.031526
 30
-8.0
  0
VERTEX
  8
0
 10
-143.019761
 20
-25.4187086299
 30
-8.0
 42
1.0
  0
VERTEX
  8
0
 10
-139.382859
 20
-25.4187086299
 30
-8.0
  0
SEQEND
  8
0
  0
POLYLINE
  8
0
 62
7
 70
1
 66
1
 10
0.0
 20
0.0
 30
0.0
  0
VERTEX
  8
0
 10
-132.672166
 20
33.027047
 30
-8.0
 42
1.0
  0
VERTEX
  8
0
 10
-136.309068
 20
33.027047
 30
-8.0
  0
VERTEX
  8
0
 10
-136.309068
 20
-25.4231876299
 30
-8.0
 42
1.0
  0
VERTEX
  8
0
 10
-132.672166
 20
-25.4231876299
 30
-8.0
  0
SEQEND
  8
0
  0
POLYLINE
  8
0
 62
7
 70
1
 66
1
 10
0.0
 20
0.0
 30
0.0
  0
VERTEX
  8
0
 10
-125.961473
 20
33.022568
 30
-8.0
 42
1.0
  0
VERTEX
  8
0
 10
-129.598375
 20
33.022568
 30
-8.0
  0
VERTEX
  8
0
 10
-129.598375
 20
-25.4276666299
 30
-8.0
 42
1.0
  0
VERTEX
  8
0
 10
-125.961473
 20
-25.4276666299
 30
-8.0
  0
SEQEND
  8
0
  0
POLYLINE
  8
0
 62
7
 70
1
 66
1
 10
0.0
 20
0.0
 30
0.0
  0
VERTEX
  8
0
 10
-105.829394
 20
33.009131
 30
-8.0
 42
1.0
  0
VERTEX
  8
0
 10
-109.466296
 20
33.009131
 30
-8.0
  0
VERTEX
  8
0
 10
-109.466296
 20
-25.4411036299
 30
-8.0
 42
1.0
  0
VERTEX
  8
0
 10
-105.829394
 20
-25.4411036299
 30
-8.0
  0
SEQEND
  8
0
  0
POLYLINE
  8
0
 62
7
 70
1
 66
1
 10
0.0
 20
0.0
 30
0.0
  0
VERTEX
  8
0
 10
-99.118701
 20
33.004652
 30
-8.0
 42
1.0
  0
VERTEX
  8
0
 10
-102.755603
 20
33.004652
 30
-8.0
  0
VERTEX
  8
0
 10
-102.755603
 20
-25.4455826299
 30
-8.0
 42
1.0
  0
VERTEX
  8
0
 10
-99.118701
 20
-25.4455826299
 30
-8.0
  0
SEQEND
  8
0
  0
POLYLINE
  8
0
 62
7
 70
1
 66
1
 10
0.0
 20
0.0
 30
0.0
  0
VERTEX
  8
0
 10
-92.408008
 20
33.000173
 30
-8.0
 42
1.0
  0
VERTEX
  8
0
 10
-96.04491
 20
33.000173
 30
-8.0
  0
VERTEX
  8
0
 10
-96.04491
 20
-25.4500616299
 30
-8.0
 42
1.0
  0
VERTEX
  8
0
 10
-92.408008
 20
-25.4500616299
 30
-8.0
  0
SEQEND
  8
0
  0
POLYLINE
  8
0
 62
7
 70
1
 66
1
 10
0.0
 20
0.0
 30
0.0
  0
VERTEX
  8
0
 10
-85.697315
 20
32.995694
 30
-8.0
 42
1.0
  0
VERTEX
  8
0
 10
-89.334217
 20
32.995694
 30
-8.0
  0
VERTEX
  8
0
 10
-89.334217
 20
-25.4545406299
 30
-8.0
 42
1.0
  0
VERTEX
  8
0
 10
-85.697315
 20
-25.4545406299
 30
-8.0
  0
SEQEND
  8
0
  0
POLYLINE
  8
0
 62
7
 70
1
 66
1
 10
0.0
 20
0.0
 30
0.0
  0
VERTEX
  8
0
 10
-78.986622
 20
32.991215
 30
-8.0
 42
1.0
  0
VERTEX
  8
0
 10
-82.623524
 20
32.991215
 30
-8.0
  0
VERTEX
  8
0
 10
-82.623524
 20
-25.4590196299
 30
-8.0
 42
1.0
  0
VERTEX
  8
0
 10
-78.986622
 20
-25.4590196299
 30
-8.0
  0
SEQEND
  8
0
  0
POLYLINE
  8
0
 62
7
 70
1
 66
1
 10
0.0
 20
0.0
 30
0.0
  0
VERTEX
  8
0
 10
-72.275929
 20
32.986736
 30
-8.0
 42
1.0
  0
VERTEX
  8
0
 10
-75.912831
 20
32.986736
 30
-8.0
  0
VERTEX
  8
0
 10
-75.912831
 20
-25.4634986299
 30
-8.0
 42
1.0
  0
VERTEX
  8
0
 10
-72.275929
 20
-25.4634986299
 30
-8.0
  0
SEQEND
  8
0
  0
POLYLINE
  8
0
 62
7
 70
1
 66
1
 10
0.0
 20
0.0
 30
0.0
  0
VERTEX
  8
0
 10
-479.407975816
 20
41.680369533
 30
-8.0
  0
VERTEX
  8
0
 10
-469.207975816
 20
41.680369533
 30
-8.0
  0
VERTEX
  8
0
 10
-469.207975816
 20
38.680369533
 30
-8.0
  0
VERTEX
  8
0
 10
-479.407975816
 20
38.680369533
 30
-8.0
  0
SEQEND
  8
0
  0
POLYLINE
  8
0
 62
7
 70
1
 66
1
 10
0.0
 20
0.0
 30
0.0
  0
VERTEX
  8
0
 10
-479.238980816
 20
-31.4078946538
 30
-8.0
  0
VERTEX
  8
0
 10
-469.038980816
 20
-31.4078946538
 30
-8.0
  0
VERTEX
  8
0
 10
-469.038980816
 20
-34.4078946538
 30
-8.0
  0
VERTEX
  8
0
 10
-479.238980816
 20
-34.4078946538
 30
-8.0
  0
SEQEND
  8
0
  0
POLYLINE
  8
0
 62
7
 70
1
 66
1
 10
0.0
 20
0.0
 30
0.0
  0
VERTEX
  8
0
 10
-285.303480816
 20
-31.4038972875
 30
-8.0
  0
VERTEX
  8
0
 10
-275.103480816
 20
-31.4038972875
 30
-8.0
  0
VERTEX
  8
0
 10
-275.103480816
 20
-34.4038972875
 30
-8.0
  0
VERTEX
  8
0
 10
-285.303480816
 20
-34.4038972875
 30
-8.0
  0
SEQEND
  8
0
  0
POLYLINE
  8
0
 62
7
 70
1
 66
1
 10
0.0
 20
0.0
 30
0.0
  0
VERTEX
  8
0
 10
-91.3555398155
 20
-31.4460732875
 30
-8.0
  0
VERTEX
  8
0
 10
-81.1555398155
 20
-31.4460732875
 30
-8.0
  0
VERTEX
  8
0
 10
-81.1555398155
 20
-34.4460732875
 30
-8.0
  0
VERTEX
  8
0
 10
-91.3555398155
 20
-34.4460732875
 30
-8.0
  0
SEQEND
  8
0
  0
POLYLINE
  8
0
 62
7
 70
1
 66
1
 10
0.0
 20
0.0
 30
0.0
  0
VERTEX
  8
0
 10
-285.496962816
 20
41.6446053462
 30
-8.0
  0
VERTEX
  8
0
 10
-275.296962816
 20
41.6446053462
 30
-8.0
  0
VERTEX
  8
0
 10
-275.296962816
 20
38.6446053462
 30
-8.0
  0
VERTEX
  8
0
 10
-285.496962816
 20
38.6446053462
 30
-8.0
  0
SEQEND
  8
0
  0
POLYLINE
  8
0
 62
7
 70
1
 66
1
 10
0.0
 20
0.0
 30
0.0
  0
VERTEX
  8
0
 10
-91.3724768155
 20
41.6115742875
 30
-8.0
  0
VERTEX
  8
0
 10
-81.1724768155
 20
41.6115742875
 30
-8.0
  0
VERTEX
  8
0
 10
-81.1724768155
 20
38.6115742875
 30
-8.0
  0
VERTEX
  8
0
 10
-91.3724768155
 20
38.6115742875
 30
-8.0
  0
SEQEND
  8
0
  0
ENDBLK
  0
ENDSEC
  0
SECTION
  2
ENTITIES
  0
INSERT
  2
SKETCH002
  8
0
 62
7
 10
0.0
 20
0.0
 30
0.0
  0
ENDSEC
  0
EOF
