  0
SECTION
  2
HEADER
  9
$ACADVER
  1
AC1009
  9
$INSBASE
 10
0.0
 20
0.0
 30
0.0
  9
$EXTMIN
 10
0.0
 20
0.0
 30
0.0
  9
$EXTMAX
 10
0.0
 20
0.0
 30
0.0
  0
ENDSEC
  0
SECTION
  2
TABLES
  0
TABLE
  2
VPORT
 70
0
  0
ENDTAB
  0
TABLE
  2
LTYPE
 70
1
  0
LTYPE
  2
CONTINUOUS
 70
0
  3
Solid line
 72
65
 73
0
 40
0.0
  0
ENDTAB
  0
TABLE
  2
LAYER
 70
1
  0
LAYER
  2
0
 70
64
 62
7
  6
continuous
  0
ENDTAB
  0
TABLE
  2
STYLE
 70
1
  0
STYLE
  2
STANDARD
 70
0
 40
0
 41
1.0
 50
0.0
 71
0
 42
1
 3
ARIAL.TTF
 4

  0
ENDTAB
  0
TABLE
  2
VIEW
 70
0
  0
ENDTAB
  0
ENDSEC
  0
SECTION
  2
BLOCKS
  0
BLOCK
  8
0
  2
SKETCH007
 70
0
 10
0.0
 20
0.0
 30
0.0
  3
SKETCH007
  0
POLYLINE
  8
0
 62
7
 70
1
 66
1
 10
0.0
 20
0.0
 30
0.0
  0
VERTEX
  8
0
 10
-156.851441
 20
209.915636561
 30
-113.0
  0
VERTEX
  8
0
 10
-149.802671313
 20
209.915636561
 30
-113.0
  0
VERTEX
  8
0
 10
-149.802671313
 20
0.044490800729
 30
-113.0
  0
VERTEX
  8
0
 10
-156.806911
 20
0.044490800729
 30
-113.0
  0
VERTEX
  8
0
 10
-156.806911
 20
-11.9555091993
 30
-113.0
  0
VERTEX
  8
0
 10
-164.606911
 20
-11.9555091993
 30
-113.0
  0
VERTEX
  8
0
 10
-164.606911
 20
0.044490800729
 30
-113.0
  0
VERTEX
  8
0
 10
-260.885990078
 20
0.044490800729
 30
-113.0
  0
VERTEX
  8
0
 10
-260.885990078
 20
-9.95550919927
 30
-113.0
  0
VERTEX
  8
0
 10
-268.685990078
 20
-9.95550919927
 30
-113.0
  0
VERTEX
  8
0
 10
-268.685990078
 20
0.044490800729
 30
-113.0
  0
VERTEX
  8
0
 10
-364.961557
 20
0.044490800729
 30
-113.0
  0
VERTEX
  8
0
 10
-364.961557
 20
-11.9555091993
 30
-113.0
  0
VERTEX
  8
0
 10
-372.761557
 20
-11.9555091993
 30
-113.0
  0
VERTEX
  8
0
 10
-372.761557
 20
0.044490800729
 30
-113.0
  0
VERTEX
  8
0
 10
-379.773376
 20
0.044490800729
 30
-113.0
  0
VERTEX
  8
0
 10
-379.773376
 20
209.915636561
 30
-113.0
  0
VERTEX
  8
0
 10
-372.70333
 20
209.915636561
 30
-113.0
  0
VERTEX
  8
0
 10
-372.70333
 20
221.915636561
 30
-113.0
  0
VERTEX
  8
0
 10
-364.90333
 20
221.915636561
 30
-113.0
  0
VERTEX
  8
0
 10
-364.90333
 20
209.915636561
 30
-113.0
  0
VERTEX
  8
0
 10
-268.726502791
 20
209.915636561
 30
-113.0
  0
VERTEX
  8
0
 10
-268.726502791
 20
219.915636561
 30
-113.0
  0
VERTEX
  8
0
 10
-260.926502791
 20
219.915636561
 30
-113.0
  0
VERTEX
  8
0
 10
-260.926502791
 20
209.915636561
 30
-113.0
  0
VERTEX
  8
0
 10
-164.651441
 20
209.915636561
 30
-113.0
  0
VERTEX
  8
0
 10
-164.651441
 20
221.915636561
 30
-113.0
  0
VERTEX
  8
0
 10
-156.851441
 20
221.915636561
 30
-113.0
  0
SEQEND
  8
0
  0
CIRCLE
  8
0
 62
7
 10
-368.70333
 20
218.915636561
 30
-113.0
 40
1.2
  0
CIRCLE
  8
0
 62
7
 10
-160.651441
 20
218.915636561
 30
-113.0
 40
1.2
  0
CIRCLE
  8
0
 62
7
 10
-160.606911
 20
-8.95550919927
 30
-113.0
 40
1.2
  0
CIRCLE
  8
0
 62
7
 10
-368.761557
 20
-8.95550919927
 30
-113.0
 40
1.2
  0
ENDBLK
  0
ENDSEC
  0
SECTION
  2
ENTITIES
  0
INSERT
  2
SKETCH007
  8
0
 62
7
 10
0.0
 20
0.0
 30
0.0
  0
ENDSEC
  0
EOF
