  0
SECTION
  2
HEADER
  9
$ACADVER
  1
AC1009
  9
$INSBASE
 10
0.0
 20
0.0
 30
0.0
  9
$EXTMIN
 10
0.0
 20
0.0
 30
0.0
  9
$EXTMAX
 10
0.0
 20
0.0
 30
0.0
  0
ENDSEC
  0
SECTION
  2
TABLES
  0
TABLE
  2
VPORT
 70
0
  0
ENDTAB
  0
TABLE
  2
LTYPE
 70
1
  0
LTYPE
  2
CONTINUOUS
 70
0
  3
Solid line
 72
65
 73
0
 40
0.0
  0
ENDTAB
  0
TABLE
  2
LAYER
 70
1
  0
LAYER
  2
0
 70
64
 62
7
  6
continuous
  0
ENDTAB
  0
TABLE
  2
STYLE
 70
1
  0
STYLE
  2
STANDARD
 70
0
 40
0
 41
1.0
 50
0.0
 71
0
 42
1
 3
ARIAL.TTF
 4

  0
ENDTAB
  0
TABLE
  2
VIEW
 70
0
  0
ENDTAB
  0
ENDSEC
  0
SECTION
  2
BLOCKS
  0
BLOCK
  8
0
  2
SKETCH002
 70
0
 10
0.0
 20
0.0
 30
0.0
  3
SKETCH002
  0
POLYLINE
  8
0
 62
7
 70
1
 66
1
 10
0.0
 20
0.0
 30
0.0
  0
VERTEX
  8
0
 10
-28.356186243
 20
-370.052730802
 30
-112.999996554
  0
VERTEX
  8
0
 10
-28.356186243
 20
-481.312652
 30
-112.999996554
  0
VERTEX
  8
0
 10
-28.3561607256
 20
-481.312652
 30
97.0000034456
  0
VERTEX
  8
0
 10
-28.3561607256
 20
-370.052730802
 30
97.0000034456
  0
VERTEX
  8
0
 10
-28.3561599965
 20
-370.052730802
 30
103.000003446
  0
VERTEX
  8
0
 10
-28.3561599965
 20
-374.052730802
 30
103.000003446
  0
VERTEX
  8
0
 10
-28.3561595105
 20
-374.052730802
 30
107.000003446
  0
VERTEX
  8
0
 10
-28.3561595105
 20
-366.052730802
 30
107.000003446
  0
VERTEX
  8
0
 10
-28.3561607256
 20
-366.052730802
 30
97.0000034456
  0
VERTEX
  8
0
 10
-28.3561607256
 20
-128.075221954
 30
97.0000034456
  0
VERTEX
  8
0
 10
-28.3561599965
 20
-128.075221954
 30
103.000003446
  0
VERTEX
  8
0
 10
-28.3561599965
 20
-132.075221954
 30
103.000003446
  0
VERTEX
  8
0
 10
-28.3561595105
 20
-132.075221954
 30
107.000003446
  0
VERTEX
  8
0
 10
-28.3561595105
 20
-124.075221954
 30
107.000003446
  0
VERTEX
  8
0
 10
-28.3561607256
 20
-124.075221954
 30
97.0000034456
  0
VERTEX
  8
0
 10
-28.3561607256
 20
-1.5598733205e-12
 30
97.0000034456
  0
VERTEX
  8
0
 10
-28.3561862431
 20
-1.55987472567e-12
 30
-112.999996554
  0
VERTEX
  8
0
 10
-28.3561862431
 20
-124.075221954
 30
-112.999996554
  0
VERTEX
  8
0
 10
-28.3561874582
 20
-124.075221954
 30
-122.999996554
  0
VERTEX
  8
0
 10
-28.3561874582
 20
-132.075221954
 30
-122.999996554
  0
VERTEX
  8
0
 10
-28.3561869721
 20
-132.075221954
 30
-118.999996554
  0
VERTEX
  8
0
 10
-28.3561869721
 20
-128.075221954
 30
-118.999996554
  0
VERTEX
  8
0
 10
-28.3561862431
 20
-128.075221954
 30
-112.999996554
  0
VERTEX
  8
0
 10
-28.356186243
 20
-366.052730802
 30
-112.999996554
  0
VERTEX
  8
0
 10
-28.3561874582
 20
-366.052730802
 30
-122.999996554
  0
VERTEX
  8
0
 10
-28.3561874582
 20
-374.052730802
 30
-122.999996554
  0
VERTEX
  8
0
 10
-28.3561869721
 20
-374.052730802
 30
-118.999996554
  0
VERTEX
  8
0
 10
-28.3561869721
 20
-370.052730802
 30
-118.999996554
  0
SEQEND
  8
0
  0
POLYLINE
  8
0
 62
7
 70
1
 66
1
 10
0.0
 20
0.0
 30
0.0
  0
VERTEX
  8
0
 10
-28.3561694722
 20
-90.89458
 30
25.0180924456
  0
VERTEX
  8
0
 10
-28.3561694758
 20
-90.588661
 30
24.9889064456
  0
VERTEX
  8
0
 10
-28.3561688035
 20
-90.588661
 30
30.5215844456
  0
VERTEX
  8
0
 10
-28.3561688035
 20
-84.555462
 30
30.5215844456
  0
VERTEX
  8
0
 10
-28.3561773627
 20
-84.555462
 30
-39.9176035544
  0
VERTEX
  8
0
 10
-28.3561773627
 20
-90.588661
 30
-39.9176035544
  0
VERTEX
  8
0
 10
-28.3561765762
 20
-90.588661
 30
-33.4450225544
  0
VERTEX
  8
0
 10
-28.3561765746
 20
-90.89458
 30
-33.4321421843
 42
1.0
  0
VERTEX
  8
0
 10
-28.3561765746
 20
-94.531482
 30
-33.4321421843
  0
VERTEX
  8
0
 10
-28.3561694722
 20
-94.531482
 30
25.0180924456
 42
1.0
  0
SEQEND
  8
0
  0
POLYLINE
  8
0
 62
7
 70
1
 66
1
 10
0.0
 20
0.0
 30
0.0
  0
VERTEX
  8
0
 10
-28.3561693419
 20
-138.123643808
 30
26.0904957793
  0
VERTEX
  8
0
 10
-28.3561688131
 20
-138.123643808
 30
30.4425574456
  0
VERTEX
  8
0
 10
-28.3561688131
 20
-131.519211
 30
30.4425574456
  0
VERTEX
  8
0
 10
-28.3561773723
 20
-131.519211
 30
-39.9966305544
  0
VERTEX
  8
0
 10
-28.3561773723
 20
-138.123643808
 30
-39.9966305544
  0
VERTEX
  8
0
 10
-28.3561766998
 20
-138.123643808
 30
-34.4619040254
 42
0.744712191158
  0
VERTEX
  8
0
 10
-28.3561765715
 20
-141.651741896
 30
-33.4068466855
  0
VERTEX
  8
0
 10
-28.3561694701
 20
-141.651741896
 30
25.0354384394
 42
0.744712191158
  0
SEQEND
  8
0
  0
POLYLINE
  8
0
 62
7
 70
1
 66
1
 10
0.0
 20
0.0
 30
0.0
  0
VERTEX
  8
0
 10
-28.3561693224
 20
-185.487183
 30
26.2514347467
  0
VERTEX
  8
0
 10
-28.3561687526
 20
-185.487183
 30
30.9406204456
  0
VERTEX
  8
0
 10
-28.3561687526
 20
-178.490799
 30
30.9406204456
  0
VERTEX
  8
0
 10
-28.3561773864
 20
-178.490799
 30
-40.1130175544
  0
VERTEX
  8
0
 10
-28.3561773864
 20
-185.487183
 30
-40.1130175544
  0
VERTEX
  8
0
 10
-28.3561767108
 20
-185.487183
 30
-34.5527252185
 42
0.667095503776
  0
VERTEX
  8
0
 10
-28.3561765671
 20
-188.330192598
 30
-33.3701181848
  0
VERTEX
  8
0
 10
-28.3561694661
 20
-188.330192598
 30
25.0688277129
 42
0.667095503776
  0
SEQEND
  8
0
  0
POLYLINE
  8
0
 62
7
 70
1
 66
1
 10
0.0
 20
0.0
 30
0.0
  0
VERTEX
  8
0
 10
-28.3561693216
 20
-232.454783657
 30
26.2577025323
  0
VERTEX
  8
0
 10
-28.3561687402
 20
-232.454783657
 30
31.0428164456
  0
VERTEX
  8
0
 10
-28.3561687402
 20
-225.873444
 30
31.0428164456
  0
VERTEX
  8
0
 10
-28.356177352
 20
-225.873444
 30
-39.8301115544
  0
VERTEX
  8
0
 10
-28.356177352
 20
-232.454783657
 30
-39.8301115544
  0
VERTEX
  8
0
 10
-28.356176698
 20
-232.454783657
 30
-34.4477675337
 42
0.679014692938
  0
VERTEX
  8
0
 10
-28.3561765588
 20
-235.34136855
 30
-33.3022155105
  0
VERTEX
  8
0
 10
-28.3561694608
 20
-235.34136855
 30
25.1121505091
 42
0.679014692938
  0
SEQEND
  8
0
  0
POLYLINE
  8
0
 62
7
 70
1
 66
1
 10
0.0
 20
0.0
 30
0.0
  0
VERTEX
  8
0
 10
-28.3561693184
 20
-279.651482177
 30
26.2837966711
  0
VERTEX
  8
0
 10
-28.3561687576
 20
-279.651482177
 30
30.8991964456
  0
VERTEX
  8
0
 10
-28.3561687576
 20
-273.09201
 30
30.8991964456
  0
VERTEX
  8
0
 10
-28.356177337
 20
-273.09201
 30
-39.7059815544
  0
VERTEX
  8
0
 10
-28.356177337
 20
-279.651482177
 30
-39.7059815544
  0
VERTEX
  8
0
 10
-28.3561767097
 20
-279.651482177
 30
-34.5437456223
 42
0.644957090661
  0
VERTEX
  8
0
 10
-28.3561765601
 20
-282.37093006
 30
-33.3124698326
  0
VERTEX
  8
0
 10
-28.356169468
 20
-282.37093006
 30
25.0525208814
 42
0.644957090661
  0
SEQEND
  8
0
  0
POLYLINE
  8
0
 62
7
 70
1
 66
1
 10
0.0
 20
0.0
 30
0.0
  0
VERTEX
  8
0
 10
-28.3561692363
 20
-326.741547
 30
26.9594209904
  0
VERTEX
  8
0
 10
-28.3561687694
 20
-326.741547
 30
30.8017124456
  0
VERTEX
  8
0
 10
-28.3561687694
 20
-320.282501
 30
30.8017124456
  0
VERTEX
  8
0
 10
-28.356177333
 20
-320.282501
 30
-39.6731415544
  0
VERTEX
  8
0
 10
-28.356177333
 20
-326.741547
 30
-39.6731415544
  0
VERTEX
  8
0
 10
-28.3561767513
 20
-326.741547
 30
-34.886551504
 42
0.561198306279
  0
VERTEX
  8
0
 10
-28.3561765553
 20
-329.385527844
 30
-33.2727938179
  0
VERTEX
  8
0
 10
-28.3561694324
 20
-329.385527844
 30
25.3456633043
 42
0.561198306279
  0
SEQEND
  8
0
  0
POLYLINE
  8
0
 62
7
 70
1
 66
1
 10
0.0
 20
0.0
 30
0.0
  0
VERTEX
  8
0
 10
-28.3561692353
 20
-373.879387239
 30
26.9675425315
  0
VERTEX
  8
0
 10
-28.356168768
 20
-373.879387239
 30
30.8135714456
  0
VERTEX
  8
0
 10
-28.356168768
 20
-367.297089
 30
30.8135714456
  0
VERTEX
  8
0
 10
-28.3561773724
 20
-367.297089
 30
-39.9975475544
  0
VERTEX
  8
0
 10
-28.3561773724
 20
-373.879387239
 30
-39.9975475544
  0
VERTEX
  8
0
 10
-28.3561767657
 20
-373.879387239
 30
-35.0046805812
 42
0.527170718158
  0
VERTEX
  8
0
 10
-28.3561765517
 20
-376.451203308
 30
-33.2433106298
  0
VERTEX
  8
0
 10
-28.3561694494
 20
-376.451203308
 30
25.2061725801
 42
0.527170718158
  0
SEQEND
  8
0
  0
POLYLINE
  8
0
 62
7
 70
1
 66
1
 10
0.0
 20
0.0
 30
0.0
  0
VERTEX
  8
0
 10
-28.356169258
 20
-420.983365573
 30
26.781381129
  0
VERTEX
  8
0
 10
-28.3561687499
 20
-420.983365573
 30
30.9627294456
  0
VERTEX
  8
0
 10
-28.3561687499
 20
-414.345093
 30
30.9627294456
  0
VERTEX
  8
0
 10
-28.3561773724
 20
-414.345093
 30
-39.9975465544
  0
VERTEX
  8
0
 10
-28.3561773724
 20
-420.983365573
 30
-39.9975465544
  0
VERTEX
  8
0
 10
-28.3561767307
 20
-420.983365573
 30
-34.7169302891
 42
0.520272855857
  0
VERTEX
  8
0
 10
-28.3561765431
 20
-423.185994512
 30
-33.1731126059
  0
VERTEX
  8
0
 10
-28.3561694455
 20
-423.185994512
 30
25.2375634457
 42
0.520272855857
  0
SEQEND
  8
0
  0
POLYLINE
  8
0
 62
7
 70
1
 66
1
 10
0.0
 20
0.0
 30
0.0
  0
VERTEX
  8
0
 10
-28.3561694439
 20
-440.033386221
 30
25.2510004457
 42
-1.0
  0
VERTEX
  8
0
 10
-28.3561694439
 20
-443.565139747
 30
25.2510004457
  0
VERTEX
  8
0
 10
-28.3561765463
 20
-443.565139747
 30
-33.1992341843
 42
-1.0
  0
VERTEX
  8
0
 10
-28.3561765463
 20
-440.033386221
 30
-33.1992341843
  0
SEQEND
  8
0
  0
POLYLINE
  8
0
 62
7
 70
1
 66
1
 10
0.0
 20
0.0
 30
0.0
  0
VERTEX
  8
0
 10
-28.3561694445
 20
-433.322693221
 30
25.2465214457
 42
-1.0
  0
VERTEX
  8
0
 10
-28.3561694445
 20
-436.776825
 30
25.2465214457
  0
VERTEX
  8
0
 10
-28.3561765469
 20
-436.776825
 30
-33.2037131843
 42
-1.0
  0
VERTEX
  8
0
 10
-28.3561765469
 20
-433.322693221
 30
-33.2037131843
  0
SEQEND
  8
0
  0
POLYLINE
  8
0
 62
7
 70
1
 66
1
 10
0.0
 20
0.0
 30
0.0
  0
VERTEX
  8
0
 10
-28.356169445
 20
-426.612000221
 30
25.2420424457
 42
-1.0
  0
VERTEX
  8
0
 10
-28.356169445
 20
-429.866072827
 30
25.2420424457
  0
VERTEX
  8
0
 10
-28.3561765474
 20
-429.866072827
 30
-33.2081921843
 42
-1.0
  0
VERTEX
  8
0
 10
-28.3561765474
 20
-426.612000221
 30
-33.2081921843
  0
SEQEND
  8
0
  0
POLYLINE
  8
0
 62
7
 70
1
 66
1
 10
0.0
 20
0.0
 30
0.0
  0
VERTEX
  8
0
 10
-28.3561694466
 20
-406.226535759
 30
25.2285675801
 42
-1.0
  0
VERTEX
  8
0
 10
-28.3561694466
 20
-409.934053
 30
25.2285675801
  0
VERTEX
  8
0
 10
-28.356176549
 20
-409.934053
 30
-33.2216291843
 42
-1.0
  0
VERTEX
  8
0
 10
-28.356176549
 20
-406.226535759
 30
-33.2216291843
  0
SEQEND
  8
0
  0
POLYLINE
  8
0
 62
7
 70
1
 66
1
 10
0.0
 20
0.0
 30
0.0
  0
VERTEX
  8
0
 10
-28.3561694472
 20
-399.515842759
 30
25.2240885801
 42
-1.0
  0
VERTEX
  8
0
 10
-28.3561694472
 20
-403.293975241
 30
25.2240885801
  0
VERTEX
  8
0
 10
-28.3561765496
 20
-403.293975241
 30
-33.2261081843
 42
-1.0
  0
VERTEX
  8
0
 10
-28.3561765496
 20
-399.515842759
 30
-33.2261081843
  0
SEQEND
  8
0
  0
POLYLINE
  8
0
 62
7
 70
1
 66
1
 10
0.0
 20
0.0
 30
0.0
  0
VERTEX
  8
0
 10
-28.3561694477
 20
-392.805149759
 30
25.2196095801
 42
-1.0
  0
VERTEX
  8
0
 10
-28.3561694477
 20
-396.512666933
 30
25.2196095801
  0
VERTEX
  8
0
 10
-28.3561765501
 20
-396.512666933
 30
-33.2305871843
 42
-1.0
  0
VERTEX
  8
0
 10
-28.3561765501
 20
-392.805149759
 30
-33.2305871843
  0
SEQEND
  8
0
  0
POLYLINE
  8
0
 62
7
 70
1
 66
1
 10
0.0
 20
0.0
 30
0.0
  0
VERTEX
  8
0
 10
-28.3561694483
 20
-386.094456759
 30
25.2151305801
 42
-1.0
  0
VERTEX
  8
0
 10
-28.3561694483
 20
-389.872589241
 30
25.2151305801
  0
VERTEX
  8
0
 10
-28.3561765507
 20
-389.872589241
 30
-33.2350661843
 42
-1.0
  0
VERTEX
  8
0
 10
-28.3561765507
 20
-386.094456759
 30
-33.2350661843
  0
SEQEND
  8
0
  0
POLYLINE
  8
0
 62
7
 70
1
 66
1
 10
0.0
 20
0.0
 30
0.0
  0
VERTEX
  8
0
 10
-28.3561694488
 20
-379.383763759
 30
25.2106515801
 42
-1.0
  0
VERTEX
  8
0
 10
-28.3561694488
 20
-383.091281
 30
25.2106515801
  0
VERTEX
  8
0
 10
-28.3561765512
 20
-383.091281
 30
-33.2395451843
 42
-1.0
  0
VERTEX
  8
0
 10
-28.3561765512
 20
-379.383763759
 30
-33.2395451843
  0
SEQEND
  8
0
  0
POLYLINE
  8
0
 62
7
 70
1
 66
1
 10
0.0
 20
0.0
 30
0.0
  0
VERTEX
  8
0
 10
-28.3561694504
 20
-359.318109896
 30
25.1972524456
 42
-1.0
  0
VERTEX
  8
0
 10
-28.3561694504
 20
-362.969101901
 30
25.1972524456
  0
VERTEX
  8
0
 10
-28.3561765528
 20
-362.969101901
 30
-33.2529821843
 42
-1.0
  0
VERTEX
  8
0
 10
-28.3561765528
 20
-359.318109896
 30
-33.2529821843
  0
SEQEND
  8
0
  0
POLYLINE
  8
0
 62
7
 70
1
 66
1
 10
0.0
 20
0.0
 30
0.0
  0
VERTEX
  8
0
 10
-28.356169451
 20
-352.607416896
 30
25.1927734456
 42
-1.0
  0
VERTEX
  8
0
 10
-28.356169451
 20
-356.248509
 30
25.1927734456
  0
VERTEX
  8
0
 10
-28.3561765534
 20
-356.248509
 30
-33.2574611843
 42
-1.0
  0
VERTEX
  8
0
 10
-28.3561765534
 20
-352.607416896
 30
-33.2574611843
  0
SEQEND
  8
0
  0
POLYLINE
  8
0
 62
7
 70
1
 66
1
 10
0.0
 20
0.0
 30
0.0
  0
VERTEX
  8
0
 10
-28.3561694515
 20
-345.896723896
 30
25.1882944456
 42
-1.0
  0
VERTEX
  8
0
 10
-28.3561694515
 20
-349.551906004
 30
25.1882944456
  0
VERTEX
  8
0
 10
-28.3561765539
 20
-349.551906004
 30
-33.2619401843
 42
-1.0
  0
VERTEX
  8
0
 10
-28.3561765539
 20
-345.896723896
 30
-33.2619401843
  0
SEQEND
  8
0
  0
POLYLINE
  8
0
 62
7
 70
1
 66
1
 10
0.0
 20
0.0
 30
0.0
  0
VERTEX
  8
0
 10
-28.3561694521
 20
-339.186030896
 30
25.1838154456
 42
-1.0
  0
VERTEX
  8
0
 10
-28.3561694521
 20
-342.831313104
 30
25.1838154456
  0
VERTEX
  8
0
 10
-28.3561765545
 20
-342.831313104
 30
-33.2664191843
 42
-1.0
  0
VERTEX
  8
0
 10
-28.3561765545
 20
-339.186030896
 30
-33.2664191843
  0
SEQEND
  8
0
  0
POLYLINE
  8
0
 62
7
 70
1
 66
1
 10
0.0
 20
0.0
 30
0.0
  0
VERTEX
  8
0
 10
-28.3561694526
 20
-332.475337896
 30
25.1793364456
 42
-1.0
  0
VERTEX
  8
0
 10
-28.3561694526
 20
-336.11643
 30
25.1793364456
  0
VERTEX
  8
0
 10
-28.356176555
 20
-336.11643
 30
-33.2708981843
 42
-1.0
  0
VERTEX
  8
0
 10
-28.356176555
 20
-332.475337896
 30
-33.2708981843
  0
SEQEND
  8
0
  0
POLYLINE
  8
0
 62
7
 70
1
 66
1
 10
0.0
 20
0.0
 30
0.0
  0
VERTEX
  8
0
 10
-28.3561694653
 20
-312.647466344
 30
25.0749158814
 42
-1.0
  0
VERTEX
  8
0
 10
-28.3561694653
 20
-315.684333656
 30
25.0749158814
  0
VERTEX
  8
0
 10
-28.3561765567
 20
-315.684333656
 30
-33.2843351843
 42
-1.0
  0
VERTEX
  8
0
 10
-28.3561765567
 20
-312.647466344
 30
-33.2843351843
  0
SEQEND
  8
0
  0
POLYLINE
  8
0
 62
7
 70
1
 66
1
 10
0.0
 20
0.0
 30
0.0
  0
VERTEX
  8
0
 10
-28.3561694659
 20
-305.936773344
 30
25.0704368814
 42
-1.0
  0
VERTEX
  8
0
 10
-28.3561694659
 20
-309.573753077
 30
25.0704368814
  0
VERTEX
  8
0
 10
-28.3561765572
 20
-309.573753077
 30
-33.2888141843
 42
-1.0
  0
VERTEX
  8
0
 10
-28.3561765572
 20
-305.936773344
 30
-33.2888141843
  0
SEQEND
  8
0
  0
POLYLINE
  8
0
 62
7
 70
1
 66
1
 10
0.0
 20
0.0
 30
0.0
  0
VERTEX
  8
0
 10
-28.3561694664
 20
-299.226080344
 30
25.0659578814
 42
-1.0
  0
VERTEX
  8
0
 10
-28.3561694664
 20
-302.863137809
 30
25.0659578814
  0
VERTEX
  8
0
 10
-28.3561765577
 20
-302.863137809
 30
-33.2932931843
 42
-1.0
  0
VERTEX
  8
0
 10
-28.3561765577
 20
-299.226080344
 30
-33.2932931843
  0
SEQEND
  8
0
  0
POLYLINE
  8
0
 62
7
 70
1
 66
1
 10
0.0
 20
0.0
 30
0.0
  0
VERTEX
  8
0
 10
-28.356169467
 20
-292.515387344
 30
25.0614788814
 42
-1.0
  0
VERTEX
  8
0
 10
-28.356169467
 20
-295.552254656
 30
25.0614788814
  0
VERTEX
  8
0
 10
-28.3561765583
 20
-295.552254656
 30
-33.2977721843
 42
-1.0
  0
VERTEX
  8
0
 10
-28.3561765583
 20
-292.515387344
 30
-33.2977721843
  0
SEQEND
  8
0
  0
POLYLINE
  8
0
 62
7
 70
1
 66
1
 10
0.0
 20
0.0
 30
0.0
  0
VERTEX
  8
0
 10
-28.3561694675
 20
-285.804694344
 30
25.0569998814
 42
-1.0
  0
VERTEX
  8
0
 10
-28.3561694675
 20
-288.841483923
 30
25.0569998814
  0
VERTEX
  8
0
 10
-28.3561765588
 20
-288.841483923
 30
-33.3022512449
 42
-1.0
  0
VERTEX
  8
0
 10
-28.3561765588
 20
-285.804694344
 30
-33.3022512449
  0
SEQEND
  8
0
  0
POLYLINE
  8
0
 62
7
 70
1
 66
1
 10
0.0
 20
0.0
 30
0.0
  0
VERTEX
  8
0
 10
-28.3561694581
 20
-265.553632047
 30
25.1345455092
 42
-1.0
  0
VERTEX
  8
0
 10
-28.3561694581
 20
-269.0095
 30
25.1345455092
  0
VERTEX
  8
0
 10
-28.3561765605
 20
-269.0095
 30
-33.3156881843
 42
-1.0
  0
VERTEX
  8
0
 10
-28.3561765605
 20
-265.553632047
 30
-33.3156881843
  0
SEQEND
  8
0
  0
POLYLINE
  8
0
 62
7
 70
1
 66
1
 10
0.0
 20
0.0
 30
0.0
  0
VERTEX
  8
0
 10
-28.3561694586
 20
-258.842939047
 30
25.1300665092
 42
-1.0
  0
VERTEX
  8
0
 10
-28.3561694586
 20
-262.298807
 30
25.1300665092
  0
VERTEX
  8
0
 10
-28.356176561
 20
-262.298807
 30
-33.3201671843
 42
-1.0
  0
VERTEX
  8
0
 10
-28.356176561
 20
-258.842939047
 30
-33.3201671843
  0
SEQEND
  8
0
  0
POLYLINE
  8
0
 62
7
 70
1
 66
1
 10
0.0
 20
0.0
 30
0.0
  0
VERTEX
  8
0
 10
-28.3561694592
 20
-252.132246047
 30
25.1255875092
 42
-1.0
  0
VERTEX
  8
0
 10
-28.3561694592
 20
-255.407079953
 30
25.1255875092
  0
VERTEX
  8
0
 10
-28.3561765616
 20
-255.407079953
 30
-33.3246461843
 42
-1.0
  0
VERTEX
  8
0
 10
-28.3561765616
 20
-252.132246047
 30
-33.3246461843
  0
SEQEND
  8
0
  0
POLYLINE
  8
0
 62
7
 70
1
 66
1
 10
0.0
 20
0.0
 30
0.0
  0
VERTEX
  8
0
 10
-28.3561694597
 20
-245.421553047
 30
25.1211085092
 42
-1.0
  0
VERTEX
  8
0
 10
-28.3561694597
 20
-248.877421
 30
25.1211085092
  0
VERTEX
  8
0
 10
-28.3561765621
 20
-248.877421
 30
-33.3291251843
 42
-1.0
  0
VERTEX
  8
0
 10
-28.3561765621
 20
-245.421553047
 30
-33.3291251843
  0
SEQEND
  8
0
  0
POLYLINE
  8
0
 62
7
 70
1
 66
1
 10
0.0
 20
0.0
 30
0.0
  0
VERTEX
  8
0
 10
-28.3561694603
 20
-238.710860047
 30
25.1166295092
 42
-1.0
  0
VERTEX
  8
0
 10
-28.3561694603
 20
-242.166728
 30
25.1166295092
  0
VERTEX
  8
0
 10
-28.3561765626
 20
-242.166728
 30
-33.3336041843
 42
-1.0
  0
VERTEX
  8
0
 10
-28.3561765626
 20
-238.710860047
 30
-33.3336041843
  0
SEQEND
  8
0
  0
POLYLINE
  8
0
 62
7
 70
1
 66
1
 10
0.0
 20
0.0
 30
0.0
  0
VERTEX
  8
0
 10
-28.3561694633
 20
-218.548718814
 30
25.0912227129
 42
-1.0
  0
VERTEX
  8
0
 10
-28.3561694633
 20
-222.034652286
 30
25.0912227129
  0
VERTEX
  8
0
 10
-28.3561765643
 20
-222.034652286
 30
-33.3470411843
 42
-1.0
  0
VERTEX
  8
0
 10
-28.3561765643
 20
-218.548718814
 30
-33.3470411843
  0
SEQEND
  8
0
  0
POLYLINE
  8
0
 62
7
 70
1
 66
1
 10
0.0
 20
0.0
 30
0.0
  0
VERTEX
  8
0
 10
-28.3561694639
 20
-211.838025814
 30
25.0867437129
 42
-1.0
  0
VERTEX
  8
0
 10
-28.3561694639
 20
-215.323952714
 30
25.0867437129
  0
VERTEX
  8
0
 10
-28.3561765648
 20
-215.323952714
 30
-33.3515201843
 42
-1.0
  0
VERTEX
  8
0
 10
-28.3561765648
 20
-211.838025814
 30
-33.3515201843
  0
SEQEND
  8
0
  0
POLYLINE
  8
0
 62
7
 70
1
 66
1
 10
0.0
 20
0.0
 30
0.0
  0
VERTEX
  8
0
 10
-28.3561694644
 20
-205.127332814
 30
25.0822647129
 42
-1.0
  0
VERTEX
  8
0
 10
-28.3561694644
 20
-208.462291186
 30
25.0822647129
  0
VERTEX
  8
0
 10
-28.3561765654
 20
-208.462291186
 30
-33.3559991843
 42
-1.0
  0
VERTEX
  8
0
 10
-28.3561765654
 20
-205.127332814
 30
-33.3559991843
  0
SEQEND
  8
0
  0
POLYLINE
  8
0
 62
7
 70
1
 66
1
 10
0.0
 20
0.0
 30
0.0
  0
VERTEX
  8
0
 10
-28.356169465
 20
-198.416639814
 30
25.0777857129
 42
-1.0
  0
VERTEX
  8
0
 10
-28.356169465
 20
-201.90257
 30
25.0777857129
  0
VERTEX
  8
0
 10
-28.3561765659
 20
-201.90257
 30
-33.3604781843
 42
-1.0
  0
VERTEX
  8
0
 10
-28.3561765659
 20
-198.416639814
 30
-33.3604781843
  0
SEQEND
  8
0
  0
POLYLINE
  8
0
 62
7
 70
1
 66
1
 10
0.0
 20
0.0
 30
0.0
  0
VERTEX
  8
0
 10
-28.3561694655
 20
-191.705946814
 30
25.0733067129
 42
-1.0
  0
VERTEX
  8
0
 10
-28.3561694655
 20
-195.191877
 30
25.0733067129
  0
VERTEX
  8
0
 10
-28.3561765665
 20
-195.191877
 30
-33.3649571843
 42
-1.0
  0
VERTEX
  8
0
 10
-28.3561765665
 20
-191.705946814
 30
-33.3649571843
  0
SEQEND
  8
0
  0
POLYLINE
  8
0
 62
7
 70
1
 66
1
 10
0.0
 20
0.0
 30
0.0
  0
VERTEX
  8
0
 10
-28.3561694674
 20
-171.361600009
 30
25.0578334394
 42
-1.0
  0
VERTEX
  8
0
 10
-28.3561694674
 20
-175.251224432
 30
25.0578334394
  0
VERTEX
  8
0
 10
-28.3561765681
 20
-175.251224432
 30
-33.3783941843
 42
-1.0
  0
VERTEX
  8
0
 10
-28.3561765681
 20
-171.361600009
 30
-33.3783941843
  0
SEQEND
  8
0
  0
POLYLINE
  8
0
 62
7
 70
1
 66
1
 10
0.0
 20
0.0
 30
0.0
  0
VERTEX
  8
0
 10
-28.3561694679
 20
-164.650907009
 30
25.0533544394
 42
-1.0
  0
VERTEX
  8
0
 10
-28.3561694679
 20
-168.027548126
 30
25.0533544394
  0
VERTEX
  8
0
 10
-28.3561765686
 20
-168.027548126
 30
-33.3828731843
 42
-1.0
  0
VERTEX
  8
0
 10
-28.3561765686
 20
-164.650907009
 30
-33.3828731843
  0
SEQEND
  8
0
  0
POLYLINE
  8
0
 62
7
 70
1
 66
1
 10
0.0
 20
0.0
 30
0.0
  0
VERTEX
  8
0
 10
-28.3561694685
 20
-157.940214009
 30
25.0488754394
 42
-1.0
  0
VERTEX
  8
0
 10
-28.3561694685
 20
-161.638412
 30
25.0488754394
  0
VERTEX
  8
0
 10
-28.3561765692
 20
-161.638412
 30
-33.3873521843
 42
-1.0
  0
VERTEX
  8
0
 10
-28.3561765692
 20
-157.940214009
 30
-33.3873521843
  0
SEQEND
  8
0
  0
POLYLINE
  8
0
 62
7
 70
1
 66
1
 10
0.0
 20
0.0
 30
0.0
  0
VERTEX
  8
0
 10
-28.356169469
 20
-151.229521009
 30
25.0443964394
 42
-1.0
  0
VERTEX
  8
0
 10
-28.356169469
 20
-155.119145432
 30
25.0443964394
  0
VERTEX
  8
0
 10
-28.3561765697
 20
-155.119145432
 30
-33.3918311843
 42
-1.0
  0
VERTEX
  8
0
 10
-28.3561765697
 20
-151.229521009
 30
-33.3918311843
  0
SEQEND
  8
0
  0
POLYLINE
  8
0
 62
7
 70
1
 66
1
 10
0.0
 20
0.0
 30
0.0
  0
VERTEX
  8
0
 10
-28.3561694696
 20
-144.518828009
 30
25.0399174394
 42
-1.0
  0
VERTEX
  8
0
 10
-28.3561694696
 20
-148.278321991
 30
25.0399174394
  0
VERTEX
  8
0
 10
-28.3561765703
 20
-148.278321991
 30
-33.3963101843
 42
-1.0
  0
VERTEX
  8
0
 10
-28.3561765703
 20
-144.518828009
 30
-33.3963101843
  0
SEQEND
  8
0
  0
POLYLINE
  8
0
 62
7
 70
1
 66
1
 10
0.0
 20
0.0
 30
0.0
  0
VERTEX
  8
0
 10
-28.3561694695
 20
-124.448045
 30
25.0404874456
 42
-1.0
  0
VERTEX
  8
0
 10
-28.3561694695
 20
-128.084947
 30
25.0404874456
  0
VERTEX
  8
0
 10
-28.3561765719
 20
-128.084947
 30
-33.4097471843
 42
-1.0
  0
VERTEX
  8
0
 10
-28.3561765719
 20
-124.448045
 30
-33.4097471843
  0
SEQEND
  8
0
  0
POLYLINE
  8
0
 62
7
 70
1
 66
1
 10
0.0
 20
0.0
 30
0.0
  0
VERTEX
  8
0
 10
-28.3561694701
 20
-117.737352
 30
25.0360084456
 42
-1.0
  0
VERTEX
  8
0
 10
-28.3561694701
 20
-121.374254
 30
25.0360084456
  0
VERTEX
  8
0
 10
-28.3561765724
 20
-121.374254
 30
-33.4142261843
 42
-1.0
  0
VERTEX
  8
0
 10
-28.3561765724
 20
-117.737352
 30
-33.4142261843
  0
SEQEND
  8
0
  0
POLYLINE
  8
0
 62
7
 70
1
 66
1
 10
0.0
 20
0.0
 30
0.0
  0
VERTEX
  8
0
 10
-28.3561694706
 20
-111.026659
 30
25.0315294456
 42
-1.0
  0
VERTEX
  8
0
 10
-28.3561694706
 20
-114.663561
 30
25.0315294456
  0
VERTEX
  8
0
 10
-28.356176573
 20
-114.663561
 30
-33.4187051843
 42
-1.0
  0
VERTEX
  8
0
 10
-28.356176573
 20
-111.026659
 30
-33.4187051843
  0
SEQEND
  8
0
  0
POLYLINE
  8
0
 62
7
 70
1
 66
1
 10
0.0
 20
0.0
 30
0.0
  0
VERTEX
  8
0
 10
-28.3561694711
 20
-104.315966
 30
25.0270504456
 42
-1.0
  0
VERTEX
  8
0
 10
-28.3561694711
 20
-107.952868
 30
25.0270504456
  0
VERTEX
  8
0
 10
-28.3561765735
 20
-107.952868
 30
-33.4231841843
 42
-1.0
  0
VERTEX
  8
0
 10
-28.3561765735
 20
-104.315966
 30
-33.4231841843
  0
SEQEND
  8
0
  0
POLYLINE
  8
0
 62
7
 70
1
 66
1
 10
0.0
 20
0.0
 30
0.0
  0
VERTEX
  8
0
 10
-28.3561694717
 20
-97.605273
 30
25.0225714456
 42
-1.0
  0
VERTEX
  8
0
 10
-28.3561694717
 20
-101.242175
 30
25.0225714456
  0
VERTEX
  8
0
 10
-28.3561765741
 20
-101.242175
 30
-33.4276631843
 42
-1.0
  0
VERTEX
  8
0
 10
-28.3561765741
 20
-97.605273
 30
-33.4276631843
  0
SEQEND
  8
0
  0
POLYLINE
  8
0
 62
7
 70
1
 66
1
 10
0.0
 20
0.0
 30
0.0
  0
VERTEX
  8
0
 10
-28.3561694733
 20
-77.473194
 30
25.0091344456
 42
-1.0
  0
VERTEX
  8
0
 10
-28.3561694733
 20
-81.110096
 30
25.0091344456
  0
VERTEX
  8
0
 10
-28.3561765757
 20
-81.110096
 30
-33.4411001843
 42
-1.0
  0
VERTEX
  8
0
 10
-28.3561765757
 20
-77.473194
 30
-33.4411001843
  0
SEQEND
  8
0
  0
POLYLINE
  8
0
 62
7
 70
1
 66
1
 10
0.0
 20
0.0
 30
0.0
  0
VERTEX
  8
0
 10
-28.3561694739
 20
-70.762501
 30
25.0046554456
 42
-1.0
  0
VERTEX
  8
0
 10
-28.3561694739
 20
-74.399403
 30
25.0046554456
  0
VERTEX
  8
0
 10
-28.3561765763
 20
-74.399403
 30
-33.4455791843
 42
-1.0
  0
VERTEX
  8
0
 10
-28.3561765763
 20
-70.762501
 30
-33.4455791843
  0
SEQEND
  8
0
  0
POLYLINE
  8
0
 62
7
 70
1
 66
1
 10
0.0
 20
0.0
 30
0.0
  0
VERTEX
  8
0
 10
-28.3561694744
 20
-64.051808
 30
25.0001764456
 42
-1.0
  0
VERTEX
  8
0
 10
-28.3561694744
 20
-67.68871
 30
25.0001764456
  0
VERTEX
  8
0
 10
-28.3561765768
 20
-67.68871
 30
-33.4500581843
 42
-1.0
  0
VERTEX
  8
0
 10
-28.3561765768
 20
-64.051808
 30
-33.4500581843
  0
SEQEND
  8
0
  0
POLYLINE
  8
0
 62
7
 70
1
 66
1
 10
0.0
 20
0.0
 30
0.0
  0
VERTEX
  8
0
 10
-28.356169475
 20
-57.341115
 30
24.9956974456
 42
-1.0
  0
VERTEX
  8
0
 10
-28.356169475
 20
-60.978017
 30
24.9956974456
  0
VERTEX
  8
0
 10
-28.3561765773
 20
-60.978017
 30
-33.4545371843
 42
-1.0
  0
VERTEX
  8
0
 10
-28.3561765773
 20
-57.341115
 30
-33.4545371843
  0
SEQEND
  8
0
  0
POLYLINE
  8
0
 62
7
 70
1
 66
1
 10
0.0
 20
0.0
 30
0.0
  0
VERTEX
  8
0
 10
-28.3561694755
 20
-50.630422
 30
24.9912184456
 42
-1.0
  0
VERTEX
  8
0
 10
-28.3561694755
 20
-54.267324
 30
24.9912184456
  0
VERTEX
  8
0
 10
-28.3561765779
 20
-54.267324
 30
-33.4590161843
 42
-1.0
  0
VERTEX
  8
0
 10
-28.3561765779
 20
-50.630422
 30
-33.4590161843
  0
SEQEND
  8
0
  0
POLYLINE
  8
0
 62
7
 70
1
 66
1
 10
0.0
 20
0.0
 30
0.0
  0
VERTEX
  8
0
 10
-28.356169476
 20
-43.919729
 30
24.9867394456
 42
-1.0
  0
VERTEX
  8
0
 10
-28.356169476
 20
-47.556631
 30
24.9867394456
  0
VERTEX
  8
0
 10
-28.3561765784
 20
-47.556631
 30
-33.4634951843
 42
-1.0
  0
VERTEX
  8
0
 10
-28.3561765784
 20
-43.919729
 30
-33.4634951843
  0
SEQEND
  8
0
  0
POLYLINE
  8
0
 62
7
 70
1
 66
1
 10
0.0
 20
0.0
 30
0.0
  0
VERTEX
  8
0
 10
-28.3561684196
 20
-451.051775816
 30
33.6803729786
  0
VERTEX
  8
0
 10
-28.3561684196
 20
-440.851775816
 30
33.6803729786
  0
VERTEX
  8
0
 10
-28.3561687842
 20
-440.851775816
 30
30.6803729786
  0
VERTEX
  8
0
 10
-28.3561687842
 20
-451.051775816
 30
30.6803729786
  0
SEQEND
  8
0
  0
POLYLINE
  8
0
 62
7
 70
1
 66
1
 10
0.0
 20
0.0
 30
0.0
  0
VERTEX
  8
0
 10
-28.3561773007
 20
-450.882780816
 30
-39.4078912082
  0
VERTEX
  8
0
 10
-28.3561773007
 20
-440.682780816
 30
-39.4078912082
  0
VERTEX
  8
0
 10
-28.3561776653
 20
-440.682780816
 30
-42.4078912082
  0
VERTEX
  8
0
 10
-28.3561776653
 20
-450.882780816
 30
-42.4078912082
  0
SEQEND
  8
0
  0
POLYLINE
  8
0
 62
7
 70
1
 66
1
 10
0.0
 20
0.0
 30
0.0
  0
VERTEX
  8
0
 10
-28.3561773003
 20
-256.947280816
 30
-39.4038938419
  0
VERTEX
  8
0
 10
-28.3561773003
 20
-246.747280816
 30
-39.4038938419
  0
VERTEX
  8
0
 10
-28.3561776648
 20
-246.747280816
 30
-42.4038938419
  0
VERTEX
  8
0
 10
-28.3561776648
 20
-256.947280816
 30
-42.4038938419
  0
SEQEND
  8
0
  0
POLYLINE
  8
0
 62
7
 70
1
 66
1
 10
0.0
 20
0.0
 30
0.0
  0
VERTEX
  8
0
 10
-28.3561773054
 20
-62.9993398155
 30
-39.4460698419
  0
VERTEX
  8
0
 10
-28.3561773054
 20
-52.7993398155
 30
-39.4460698419
  0
VERTEX
  8
0
 10
-28.3561776699
 20
-52.7993398155
 30
-42.4460698419
  0
VERTEX
  8
0
 10
-28.3561776699
 20
-62.9993398155
 30
-42.4460698419
  0
SEQEND
  8
0
  0
POLYLINE
  8
0
 62
7
 70
1
 66
1
 10
0.0
 20
0.0
 30
0.0
  0
VERTEX
  8
0
 10
-28.356168424
 20
-257.140762816
 30
33.6446087918
  0
VERTEX
  8
0
 10
-28.356168424
 20
-246.940762816
 30
33.6446087918
  0
VERTEX
  8
0
 10
-28.3561687885
 20
-246.940762816
 30
30.6446087918
  0
VERTEX
  8
0
 10
-28.3561687885
 20
-257.140762816
 30
30.6446087918
  0
SEQEND
  8
0
  0
POLYLINE
  8
0
 62
7
 70
1
 66
1
 10
0.0
 20
0.0
 30
0.0
  0
VERTEX
  8
0
 10
-28.356168428
 20
-63.0162768155
 30
33.6115777331
  0
VERTEX
  8
0
 10
-28.356168428
 20
-52.8162768155
 30
33.6115777331
  0
VERTEX
  8
0
 10
-28.3561687926
 20
-52.8162768155
 30
30.6115777331
  0
VERTEX
  8
0
 10
-28.3561687926
 20
-63.0162768155
 30
30.6115777331
  0
SEQEND
  8
0
  0
ENDBLK
  0
ENDSEC
  0
SECTION
  2
ENTITIES
  0
INSERT
  2
SKETCH002
  8
0
 62
7
 10
0.0
 20
0.0
 30
0.0
  0
ENDSEC
  0
EOF
