  0
SECTION
  2
HEADER
  9
$ACADVER
  1
AC1009
  9
$INSBASE
 10
0.0
 20
0.0
 30
0.0
  9
$EXTMIN
 10
0.0
 20
0.0
 30
0.0
  9
$EXTMAX
 10
0.0
 20
0.0
 30
0.0
  0
ENDSEC
  0
SECTION
  2
TABLES
  0
TABLE
  2
VPORT
 70
0
  0
ENDTAB
  0
TABLE
  2
LTYPE
 70
1
  0
LTYPE
  2
CONTINUOUS
 70
0
  3
Solid line
 72
65
 73
0
 40
0.0
  0
ENDTAB
  0
TABLE
  2
LAYER
 70
1
  0
LAYER
  2
0
 70
64
 62
7
  6
continuous
  0
ENDTAB
  0
TABLE
  2
STYLE
 70
1
  0
STYLE
  2
STANDARD
 70
0
 40
0
 41
1.0
 50
0.0
 71
0
 42
1
 3
ARIAL.TTF
 4

  0
ENDTAB
  0
TABLE
  2
VIEW
 70
0
  0
ENDTAB
  0
ENDSEC
  0
SECTION
  2
BLOCKS
  0
BLOCK
  8
0
  2
SKETCH005
 70
0
 10
0.0
 20
0.0
 30
0.0
  3
SKETCH005
  0
POLYLINE
  8
0
 62
7
 70
1
 66
1
 10
0.0
 20
0.0
 30
0.0
  0
VERTEX
  8
0
 10
27.031299
 20
50.006473
 30
-8.00003
  0
VERTEX
  8
0
 10
510.506353
 20
50.006473
 30
-8.00003
  0
VERTEX
  8
0
 10
510.506353
 20
-159.913717
 30
-8.00003
  0
VERTEX
  8
0
 10
27.031299
 20
-159.913717
 30
-8.00003
  0
SEQEND
  8
0
  0
POLYLINE
  8
0
 62
7
 70
1
 66
1
 10
0.0
 20
0.0
 30
0.0
  0
VERTEX
  8
0
 10
95.701406
 20
-16.3757832875
 30
-8.00003
  0
VERTEX
  8
0
 10
103.801406
 20
-16.3757832875
 30
-8.00003
  0
VERTEX
  8
0
 10
103.801406
 20
-13.3757832875
 30
-8.00003
  0
VERTEX
  8
0
 10
95.701406
 20
-13.3757832875
 30
-8.00003
  0
SEQEND
  8
0
  0
POLYLINE
  8
0
 62
7
 70
1
 66
1
 10
0.0
 20
0.0
 30
0.0
  0
VERTEX
  8
0
 10
95.57089
 20
-86.3864782875
 30
-8.00003
  0
VERTEX
  8
0
 10
103.67089
 20
-86.3864782875
 30
-8.00003
  0
VERTEX
  8
0
 10
103.67089
 20
-89.3864782875
 30
-8.00003
  0
VERTEX
  8
0
 10
95.57089
 20
-89.3864782875
 30
-8.00003
  0
SEQEND
  8
0
  0
POLYLINE
  8
0
 62
7
 70
1
 66
1
 10
0.0
 20
0.0
 30
0.0
  0
VERTEX
  8
0
 10
290.965154
 20
-86.3788067125
 30
-8.00003
  0
VERTEX
  8
0
 10
299.065154
 20
-86.3788067125
 30
-8.00003
  0
VERTEX
  8
0
 10
299.065154
 20
-89.3788067125
 30
-8.00003
  0
VERTEX
  8
0
 10
290.965154
 20
-89.3788067125
 30
-8.00003
  0
SEQEND
  8
0
  0
POLYLINE
  8
0
 62
7
 70
1
 66
1
 10
0.0
 20
0.0
 30
0.0
  0
VERTEX
  8
0
 10
291.038671
 20
-13.3291667125
 30
-8.00003
  0
VERTEX
  8
0
 10
299.138671
 20
-13.3291667125
 30
-8.00003
  0
VERTEX
  8
0
 10
299.138671
 20
-16.3291667125
 30
-8.00003
  0
VERTEX
  8
0
 10
291.038671
 20
-16.3291667125
 30
-8.00003
  0
SEQEND
  8
0
  0
POLYLINE
  8
0
 62
7
 70
1
 66
1
 10
0.0
 20
0.0
 30
0.0
  0
VERTEX
  8
0
 10
486.365483
 20
-13.3246387125
 30
-8.00003
  0
VERTEX
  8
0
 10
494.465483
 20
-13.3246387125
 30
-8.00003
  0
VERTEX
  8
0
 10
494.465483
 20
-16.3246387125
 30
-8.00003
  0
VERTEX
  8
0
 10
486.365483
 20
-16.3246387125
 30
-8.00003
  0
SEQEND
  8
0
  0
POLYLINE
  8
0
 62
7
 70
1
 66
1
 10
0.0
 20
0.0
 30
0.0
  0
VERTEX
  8
0
 10
486.401464
 20
-86.3861162875
 30
-8.00003
  0
VERTEX
  8
0
 10
494.501464
 20
-86.3861162875
 30
-8.00003
  0
VERTEX
  8
0
 10
494.501464
 20
-89.3861162875
 30
-8.00003
  0
VERTEX
  8
0
 10
486.401464
 20
-89.3861162875
 30
-8.00003
  0
SEQEND
  8
0
  0
POLYLINE
  8
0
 62
7
 70
1
 66
1
 10
0.0
 20
0.0
 30
0.0
  0
VERTEX
  8
0
 10
233.832557875
 20
-20.981
 30
-8.00003
  0
VERTEX
  8
0
 10
263.832557875
 20
-20.981
 30
-8.00003
  0
VERTEX
  8
0
 10
263.832557875
 20
-80.981
 30
-8.00003
  0
VERTEX
  8
0
 10
233.832557875
 20
-80.981
 30
-8.00003
  0
SEQEND
  8
0
  0
POLYLINE
  8
0
 62
7
 70
1
 66
1
 10
0.0
 20
0.0
 30
0.0
  0
VERTEX
  8
0
 10
281.237526875
 20
-20.981
 30
-8.00003
  0
VERTEX
  8
0
 10
311.237526875
 20
-20.981
 30
-8.00003
  0
VERTEX
  8
0
 10
311.237526875
 20
-80.981
 30
-8.00003
  0
VERTEX
  8
0
 10
281.237526875
 20
-80.981
 30
-8.00003
  0
SEQEND
  8
0
  0
POLYLINE
  8
0
 62
7
 70
1
 66
1
 10
0.0
 20
0.0
 30
0.0
  0
VERTEX
  8
0
 10
328.165712125
 20
-20.981
 30
-8.00003
  0
VERTEX
  8
0
 10
358.165712125
 20
-20.981
 30
-8.00003
  0
VERTEX
  8
0
 10
358.165712125
 20
-80.981
 30
-8.00003
  0
VERTEX
  8
0
 10
328.165712125
 20
-80.981
 30
-8.00003
  0
SEQEND
  8
0
  0
POLYLINE
  8
0
 62
7
 70
1
 66
1
 10
0.0
 20
0.0
 30
0.0
  0
VERTEX
  8
0
 10
375.614906875
 20
-20.981
 30
-8.00003
  0
VERTEX
  8
0
 10
405.614906875
 20
-20.981
 30
-8.00003
  0
VERTEX
  8
0
 10
405.614906875
 20
-80.981
 30
-8.00003
  0
VERTEX
  8
0
 10
375.614906875
 20
-80.981
 30
-8.00003
  0
SEQEND
  8
0
  0
POLYLINE
  8
0
 62
7
 70
1
 66
1
 10
0.0
 20
0.0
 30
0.0
  0
VERTEX
  8
0
 10
422.405922875
 20
-20.981
 30
-8.00003
  0
VERTEX
  8
0
 10
452.405922875
 20
-20.981
 30
-8.00003
  0
VERTEX
  8
0
 10
452.405922875
 20
-80.981
 30
-8.00003
  0
VERTEX
  8
0
 10
422.405922875
 20
-80.981
 30
-8.00003
  0
SEQEND
  8
0
  0
POLYLINE
  8
0
 62
7
 70
1
 66
1
 10
0.0
 20
0.0
 30
0.0
  0
VERTEX
  8
0
 10
469.241710712
 20
-20.981
 30
-8.00003
  0
VERTEX
  8
0
 10
499.241710712
 20
-20.981
 30
-8.00003
  0
VERTEX
  8
0
 10
499.241710712
 20
-80.981
 30
-8.00003
  0
VERTEX
  8
0
 10
469.241710712
 20
-80.981
 30
-8.00003
  0
SEQEND
  8
0
  0
POLYLINE
  8
0
 62
7
 70
1
 66
1
 10
0.0
 20
0.0
 30
0.0
  0
VERTEX
  8
0
 10
186.821025712
 20
-20.981
 30
-8.00003
  0
VERTEX
  8
0
 10
216.821025712
 20
-20.981
 30
-8.00003
  0
VERTEX
  8
0
 10
216.821025712
 20
-80.981
 30
-8.00003
  0
VERTEX
  8
0
 10
186.821025712
 20
-80.981
 30
-8.00003
  0
SEQEND
  8
0
  0
POLYLINE
  8
0
 62
7
 70
1
 66
1
 10
0.0
 20
0.0
 30
0.0
  0
VERTEX
  8
0
 10
139.521790816
 20
-20.981
 30
-8.00003
  0
VERTEX
  8
0
 10
169.521790816
 20
-20.981
 30
-8.00003
  0
VERTEX
  8
0
 10
169.521790816
 20
-80.981
 30
-8.00003
  0
VERTEX
  8
0
 10
139.521790816
 20
-80.981
 30
-8.00003
  0
SEQEND
  8
0
  0
CIRCLE
  8
0
 62
7
 10
153.815465
 20
-119.912852
 30
-8.00003
 40
4.25
  0
CIRCLE
  8
0
 62
7
 10
201.315465
 20
-120.01253
 30
-8.00003
 40
4.25
  0
CIRCLE
  8
0
 62
7
 10
248.815465
 20
-120.01253
 30
-8.00003
 40
4.25
  0
CIRCLE
  8
0
 62
7
 10
296.315465
 20
-120.046587
 30
-8.00003
 40
4.25
  0
CIRCLE
  8
0
 62
7
 10
343.815465
 20
-120.038492
 30
-8.00003
 40
4.25
  0
CIRCLE
  8
0
 62
7
 10
391.315465
 20
-120.038496
 30
-8.00003
 40
4.25
  0
CIRCLE
  8
0
 62
7
 10
438.815465
 20
-119.983706
 30
-8.00003
 40
4.25
  0
CIRCLE
  8
0
 62
7
 10
486.315465
 20
-119.983709
 30
-8.00003
 40
4.25
  0
ENDBLK
  0
ENDSEC
  0
SECTION
  2
ENTITIES
  0
INSERT
  2
SKETCH005
  8
0
 62
7
 10
0.0
 20
0.0
 30
0.0
  0
ENDSEC
  0
EOF
