  0
SECTION
  2
HEADER
  9
$ACADVER
  1
AC1009
  9
$INSBASE
 10
0.0
 20
0.0
 30
0.0
  9
$EXTMIN
 10
0.0
 20
0.0
 30
0.0
  9
$EXTMAX
 10
0.0
 20
0.0
 30
0.0
  0
ENDSEC
  0
SECTION
  2
TABLES
  0
TABLE
  2
VPORT
 70
0
  0
ENDTAB
  0
TABLE
  2
LTYPE
 70
1
  0
LTYPE
  2
CONTINUOUS
 70
0
  3
Solid line
 72
65
 73
0
 40
0.0
  0
ENDTAB
  0
TABLE
  2
LAYER
 70
1
  0
LAYER
  2
0
 70
64
 62
7
  6
continuous
  0
ENDTAB
  0
TABLE
  2
STYLE
 70
1
  0
STYLE
  2
STANDARD
 70
0
 40
0
 41
1.0
 50
0.0
 71
0
 42
1
 3
ARIAL.TTF
 4

  0
ENDTAB
  0
TABLE
  2
VIEW
 70
0
  0
ENDTAB
  0
ENDSEC
  0
SECTION
  2
BLOCKS
  0
BLOCK
  8
0
  2
SKETCH003
 70
0
 10
0.0
 20
0.0
 30
0.0
  3
SKETCH003
  0
POLYLINE
  8
0
 62
7
 70
1
 66
1
 10
0.0
 20
0.0
 30
0.0
  0
VERTEX
  8
0
 10
36.6562219792
 20
-616.351646117
 30
-8.0
  0
VERTEX
  8
0
 10
36.6562219792
 20
-673.790323453
 30
-8.0
  0
VERTEX
  8
0
 10
-193.343778021
 20
-673.790323453
 30
-8.0
  0
VERTEX
  8
0
 10
-193.343778021
 20
-562.143671716
 30
-8.0
  0
VERTEX
  8
0
 10
-200.343778021
 20
-562.143671716
 30
-8.0
  0
VERTEX
  8
0
 10
-200.343778021
 20
-554.143671716
 30
-8.0
  0
VERTEX
  8
0
 10
-196.343778021
 20
-554.143671716
 30
-8.0
  0
VERTEX
  8
0
 10
-196.343778021
 20
-558.143671716
 30
-8.0
  0
VERTEX
  8
0
 10
-193.343778021
 20
-558.143671716
 30
-8.0
  0
VERTEX
  8
0
 10
-193.343778021
 20
-385.357562878
 30
-8.0
  0
VERTEX
  8
0
 10
-200.343778021
 20
-385.357562878
 30
-8.0
  0
VERTEX
  8
0
 10
-200.343778021
 20
-377.357562878
 30
-8.0
  0
VERTEX
  8
0
 10
-196.343778021
 20
-377.357562878
 30
-8.0
  0
VERTEX
  8
0
 10
-196.343778021
 20
-381.357562878
 30
-8.0
  0
VERTEX
  8
0
 10
-193.343778021
 20
-381.357562878
 30
-8.0
  0
VERTEX
  8
0
 10
-193.343778021
 20
-180.320194551
 30
-8.0
  0
VERTEX
  8
0
 10
-200.343778021
 20
-180.320194551
 30
-8.0
  0
VERTEX
  8
0
 10
-200.343778021
 20
-172.320194551
 30
-8.0
  0
VERTEX
  8
0
 10
-196.343778021
 20
-172.320194551
 30
-8.0
  0
VERTEX
  8
0
 10
-196.343778021
 20
-176.320194551
 30
-8.0
  0
VERTEX
  8
0
 10
-193.343778021
 20
-176.320194551
 30
-8.0
  0
VERTEX
  8
0
 10
-193.343778021
 20
-129.790323453
 30
-8.0
  0
VERTEX
  8
0
 10
-149.670523369
 20
-129.790323453
 30
-8.0
  0
VERTEX
  8
0
 10
-149.670523369
 20
-120.790323453
 30
-8.0
  0
VERTEX
  8
0
 10
-141.670523369
 20
-120.790323453
 30
-8.0
  0
VERTEX
  8
0
 10
-141.670523369
 20
-129.790323453
 30
-8.0
  0
VERTEX
  8
0
 10
36.6562219792
 20
-129.790323453
 30
-8.0
  0
VERTEX
  8
0
 10
36.6562219792
 20
-186.802907308
 30
-8.0
  0
VERTEX
  8
0
 10
39.6562219792
 20
-186.802907308
 30
-8.0
  0
VERTEX
  8
0
 10
39.6562219792
 20
-182.802907308
 30
-8.0
  0
VERTEX
  8
0
 10
43.6562219792
 20
-182.802907308
 30
-8.0
  0
VERTEX
  8
0
 10
43.6562219792
 20
-190.802907308
 30
-8.0
  0
VERTEX
  8
0
 10
36.6562219792
 20
-190.802907308
 30
-8.0
  0
VERTEX
  8
0
 10
36.6562219792
 20
-468.529506616
 30
-8.0
  0
VERTEX
  8
0
 10
39.6562219792
 20
-468.529506616
 30
-8.0
  0
VERTEX
  8
0
 10
39.6562219792
 20
-464.529506616
 30
-8.0
  0
VERTEX
  8
0
 10
43.6562219792
 20
-464.529506616
 30
-8.0
  0
VERTEX
  8
0
 10
43.6562219792
 20
-472.529506616
 30
-8.0
  0
VERTEX
  8
0
 10
36.6562219792
 20
-472.529506616
 30
-8.0
  0
VERTEX
  8
0
 10
36.6562219792
 20
-612.351646117
 30
-8.0
  0
VERTEX
  8
0
 10
39.6562219792
 20
-612.351646117
 30
-8.0
  0
VERTEX
  8
0
 10
39.6562219792
 20
-608.351646117
 30
-8.0
  0
VERTEX
  8
0
 10
43.6562219792
 20
-608.351646117
 30
-8.0
  0
VERTEX
  8
0
 10
43.6562219792
 20
-616.351646117
 30
-8.0
  0
SEQEND
  8
0
  0
POLYLINE
  8
0
 62
7
 70
1
 66
1
 10
0.0
 20
0.0
 30
0.0
  0
VERTEX
  8
0
 10
-28.387462
 20
-493.85625
 30
-8.0
  0
VERTEX
  8
0
 10
-25.387462
 20
-493.85625
 30
-8.0
  0
VERTEX
  8
0
 10
-25.387462
 20
-502.35625
 30
-8.0
  0
VERTEX
  8
0
 10
-28.387462
 20
-502.35625
 30
-8.0
  0
SEQEND
  8
0
  0
POLYLINE
  8
0
 62
7
 70
1
 66
1
 10
0.0
 20
0.0
 30
0.0
  0
VERTEX
  8
0
 10
-28.375305
 20
-251.781253
 30
-8.0
  0
VERTEX
  8
0
 10
-25.375305
 20
-251.781253
 30
-8.0
  0
VERTEX
  8
0
 10
-25.375305
 20
-260.281253
 30
-8.0
  0
VERTEX
  8
0
 10
-28.375305
 20
-260.281253
 30
-8.0
  0
SEQEND
  8
0
  0
POLYLINE
  8
0
 62
7
 70
1
 66
1
 10
0.0
 20
0.0
 30
0.0
  0
VERTEX
  8
0
 10
-186.443778021
 20
-665.790323453
 30
-8.0
  0
VERTEX
  8
0
 10
-178.343778021
 20
-665.790323453
 30
-8.0
  0
VERTEX
  8
0
 10
-178.343778021
 20
-668.790323453
 30
-8.0
  0
VERTEX
  8
0
 10
-186.443778021
 20
-668.790323453
 30
-8.0
  0
SEQEND
  8
0
  0
POLYLINE
  8
0
 62
7
 70
1
 66
1
 10
0.0
 20
0.0
 30
0.0
  0
VERTEX
  8
0
 10
-82.3937780208
 20
-665.790323453
 30
-8.0
  0
VERTEX
  8
0
 10
-74.2937780208
 20
-665.790323453
 30
-8.0
  0
VERTEX
  8
0
 10
-74.2937780208
 20
-668.790323453
 30
-8.0
  0
VERTEX
  8
0
 10
-82.3937780208
 20
-668.790323453
 30
-8.0
  0
SEQEND
  8
0
  0
POLYLINE
  8
0
 62
7
 70
1
 66
1
 10
0.0
 20
0.0
 30
0.0
  0
VERTEX
  8
0
 10
21.6562219792
 20
-665.790323453
 30
-8.0
  0
VERTEX
  8
0
 10
29.7562219792
 20
-665.790323453
 30
-8.0
  0
VERTEX
  8
0
 10
29.7562219792
 20
-668.790323453
 30
-8.0
  0
VERTEX
  8
0
 10
21.6562219792
 20
-668.790323453
 30
-8.0
  0
SEQEND
  8
0
  0
CIRCLE
  8
0
 62
7
 10
-145.670523369
 20
-123.790323453
 30
-8.0
 40
1.25
  0
POLYLINE
  8
0
 62
7
 70
1
 66
1
 10
0.0
 20
0.0
 30
0.0
  0
VERTEX
  8
0
 10
-108.361555052
 20
-223.505121631
 30
-8.0
  0
VERTEX
  8
0
 10
-48.3615550523
 20
-223.505121631
 30
-8.0
  0
VERTEX
  8
0
 10
-48.3615550523
 20
-231.505121631
 30
-8.0
  0
VERTEX
  8
0
 10
-108.361555052
 20
-231.505121631
 30
-8.0
  0
SEQEND
  8
0
  0
ENDBLK
  0
ENDSEC
  0
SECTION
  2
ENTITIES
  0
INSERT
  2
SKETCH003
  8
0
 62
7
 10
0.0
 20
0.0
 30
0.0
  0
ENDSEC
  0
EOF
